<mxfile host="app.diagrams.net" modified="2023-10-16T15:38:03.624Z" agent="Mozilla/5.0 (Windows NT 10.0; Win64; x64; rv:109.0) Gecko/20100101 Firefox/118.0" etag="cGxBwkhavwGQJdztrULl" version="22.0.4" type="google">
  <diagram id="C5RBs43oDa-KdzZeNtuy" name="Page-1">
    <mxGraphModel grid="1" page="1" gridSize="10" guides="1" tooltips="1" connect="1" arrows="1" fold="1" pageScale="1" pageWidth="827" pageHeight="1169" math="0" shadow="0">
      <root>
        <mxCell id="WIyWlLk6GJQsqaUBKTNV-0" />
        <mxCell id="WIyWlLk6GJQsqaUBKTNV-1" parent="WIyWlLk6GJQsqaUBKTNV-0" />
        <mxCell id="09qiv7vU6BCCD43riBRa-8" value="&lt;div&gt;dao&lt;/div&gt;" style="shape=umlFrame;whiteSpace=wrap;html=1;pointerEvents=0;" vertex="1" parent="WIyWlLk6GJQsqaUBKTNV-1">
          <mxGeometry x="1220" y="90" width="580" height="1910" as="geometry" />
        </mxCell>
        <mxCell id="09qiv7vU6BCCD43riBRa-10" value="user-dao" style="swimlane;fontStyle=1;align=center;verticalAlign=top;childLayout=stackLayout;horizontal=1;startSize=26;horizontalStack=0;resizeParent=1;resizeParentMax=0;resizeLast=0;collapsible=1;marginBottom=0;whiteSpace=wrap;html=1;" vertex="1" parent="WIyWlLk6GJQsqaUBKTNV-1">
          <mxGeometry x="1241" y="140" width="539" height="216" as="geometry" />
        </mxCell>
        <mxCell id="09qiv7vU6BCCD43riBRa-12" value="" style="line;strokeWidth=1;fillColor=none;align=left;verticalAlign=middle;spacingTop=-1;spacingLeft=3;spacingRight=3;rotatable=0;labelPosition=right;points=[];portConstraint=eastwest;strokeColor=inherit;" vertex="1" parent="09qiv7vU6BCCD43riBRa-10">
          <mxGeometry y="26" width="539" height="8" as="geometry" />
        </mxCell>
        <mxCell id="09qiv7vU6BCCD43riBRa-13" value="+ createUser(user): void" style="text;strokeColor=none;fillColor=none;align=left;verticalAlign=top;spacingLeft=4;spacingRight=4;overflow=hidden;rotatable=0;points=[[0,0.5],[1,0.5]];portConstraint=eastwest;whiteSpace=wrap;html=1;" vertex="1" parent="09qiv7vU6BCCD43riBRa-10">
          <mxGeometry y="34" width="539" height="26" as="geometry" />
        </mxCell>
        <mxCell id="09qiv7vU6BCCD43riBRa-62" value="+ getUserByUsername(username: string): user" style="text;strokeColor=none;fillColor=none;align=left;verticalAlign=top;spacingLeft=4;spacingRight=4;overflow=hidden;rotatable=0;points=[[0,0.5],[1,0.5]];portConstraint=eastwest;whiteSpace=wrap;html=1;" vertex="1" parent="09qiv7vU6BCCD43riBRa-10">
          <mxGeometry y="60" width="539" height="26" as="geometry" />
        </mxCell>
        <mxCell id="09qiv7vU6BCCD43riBRa-63" value="&lt;div&gt;+ getUserByEmail(email: string): user&lt;/div&gt;" style="text;strokeColor=none;fillColor=none;align=left;verticalAlign=top;spacingLeft=4;spacingRight=4;overflow=hidden;rotatable=0;points=[[0,0.5],[1,0.5]];portConstraint=eastwest;whiteSpace=wrap;html=1;" vertex="1" parent="09qiv7vU6BCCD43riBRa-10">
          <mxGeometry y="86" width="539" height="26" as="geometry" />
        </mxCell>
        <mxCell id="09qiv7vU6BCCD43riBRa-64" value="+ updateUserRole(username: string, newrole: string): void" style="text;strokeColor=none;fillColor=none;align=left;verticalAlign=top;spacingLeft=4;spacingRight=4;overflow=hidden;rotatable=0;points=[[0,0.5],[1,0.5]];portConstraint=eastwest;whiteSpace=wrap;html=1;" vertex="1" parent="09qiv7vU6BCCD43riBRa-10">
          <mxGeometry y="112" width="539" height="26" as="geometry" />
        </mxCell>
        <mxCell id="09qiv7vU6BCCD43riBRa-65" value="+ updateUserEmail(username: string, newemail: string): void" style="text;strokeColor=none;fillColor=none;align=left;verticalAlign=top;spacingLeft=4;spacingRight=4;overflow=hidden;rotatable=0;points=[[0,0.5],[1,0.5]];portConstraint=eastwest;whiteSpace=wrap;html=1;" vertex="1" parent="09qiv7vU6BCCD43riBRa-10">
          <mxGeometry y="138" width="539" height="26" as="geometry" />
        </mxCell>
        <mxCell id="09qiv7vU6BCCD43riBRa-68" value="+ updateUserFullname(username: string, newsurname: string, newforename: string): void" style="text;strokeColor=none;fillColor=none;align=left;verticalAlign=top;spacingLeft=4;spacingRight=4;overflow=hidden;rotatable=0;points=[[0,0.5],[1,0.5]];portConstraint=eastwest;whiteSpace=wrap;html=1;" vertex="1" parent="09qiv7vU6BCCD43riBRa-10">
          <mxGeometry y="164" width="539" height="26" as="geometry" />
        </mxCell>
        <mxCell id="09qiv7vU6BCCD43riBRa-69" value="+ deleteUser(username: string): void" style="text;strokeColor=none;fillColor=none;align=left;verticalAlign=top;spacingLeft=4;spacingRight=4;overflow=hidden;rotatable=0;points=[[0,0.5],[1,0.5]];portConstraint=eastwest;whiteSpace=wrap;html=1;" vertex="1" parent="09qiv7vU6BCCD43riBRa-10">
          <mxGeometry y="190" width="539" height="26" as="geometry" />
        </mxCell>
        <mxCell id="09qiv7vU6BCCD43riBRa-32" value="" style="group" connectable="0" vertex="1" parent="WIyWlLk6GJQsqaUBKTNV-1">
          <mxGeometry x="460" y="-150" width="460" height="240" as="geometry" />
        </mxCell>
        <mxCell id="09qiv7vU6BCCD43riBRa-0" value="config" style="shape=umlFrame;whiteSpace=wrap;html=1;pointerEvents=0;" vertex="1" parent="09qiv7vU6BCCD43riBRa-32">
          <mxGeometry width="460" height="239.99999999999997" as="geometry" />
        </mxCell>
        <mxCell id="zkfFHV4jXpPFQw0GAbJ--0" value="Pool" style="swimlane;fontStyle=2;align=center;verticalAlign=top;childLayout=stackLayout;horizontal=1;startSize=26;horizontalStack=0;resizeParent=1;resizeLast=0;collapsible=1;marginBottom=0;rounded=0;shadow=0;strokeWidth=1;" vertex="1" parent="09qiv7vU6BCCD43riBRa-32">
          <mxGeometry x="250" y="30.638297872340424" width="160" height="163.40425531914892" as="geometry">
            <mxRectangle x="230" y="140" width="160" height="26" as="alternateBounds" />
          </mxGeometry>
        </mxCell>
        <mxCell id="zkfFHV4jXpPFQw0GAbJ--1" value="+ user: string" style="text;align=left;verticalAlign=top;spacingLeft=4;spacingRight=4;overflow=hidden;rotatable=0;points=[[0,0.5],[1,0.5]];portConstraint=eastwest;" vertex="1" parent="zkfFHV4jXpPFQw0GAbJ--0">
          <mxGeometry y="26" width="160" height="26.5531914893617" as="geometry" />
        </mxCell>
        <mxCell id="zkfFHV4jXpPFQw0GAbJ--2" value="+ host: string" style="text;align=left;verticalAlign=top;spacingLeft=4;spacingRight=4;overflow=hidden;rotatable=0;points=[[0,0.5],[1,0.5]];portConstraint=eastwest;rounded=0;shadow=0;html=0;" vertex="1" parent="zkfFHV4jXpPFQw0GAbJ--0">
          <mxGeometry y="52.5531914893617" width="160" height="26.5531914893617" as="geometry" />
        </mxCell>
        <mxCell id="zkfFHV4jXpPFQw0GAbJ--3" value="+ database: string" style="text;align=left;verticalAlign=top;spacingLeft=4;spacingRight=4;overflow=hidden;rotatable=0;points=[[0,0.5],[1,0.5]];portConstraint=eastwest;rounded=0;shadow=0;html=0;" vertex="1" parent="zkfFHV4jXpPFQw0GAbJ--0">
          <mxGeometry y="79.1063829787234" width="160" height="26.5531914893617" as="geometry" />
        </mxCell>
        <mxCell id="09qiv7vU6BCCD43riBRa-2" value="+ password: string" style="text;strokeColor=none;fillColor=none;align=left;verticalAlign=top;spacingLeft=4;spacingRight=4;overflow=hidden;rotatable=0;points=[[0,0.5],[1,0.5]];portConstraint=eastwest;whiteSpace=wrap;html=1;" vertex="1" parent="zkfFHV4jXpPFQw0GAbJ--0">
          <mxGeometry y="105.65957446808511" width="160" height="26.5531914893617" as="geometry" />
        </mxCell>
        <mxCell id="09qiv7vU6BCCD43riBRa-3" value="+ port: int" style="text;strokeColor=none;fillColor=none;align=left;verticalAlign=top;spacingLeft=4;spacingRight=4;overflow=hidden;rotatable=0;points=[[0,0.5],[1,0.5]];portConstraint=eastwest;whiteSpace=wrap;html=1;" vertex="1" parent="zkfFHV4jXpPFQw0GAbJ--0">
          <mxGeometry y="132.2127659574468" width="160" height="26.5531914893617" as="geometry" />
        </mxCell>
        <mxCell id="09qiv7vU6BCCD43riBRa-4" value="userAuth" style="swimlane;fontStyle=0;childLayout=stackLayout;horizontal=1;startSize=26;fillColor=none;horizontalStack=0;resizeParent=1;resizeParentMax=0;resizeLast=0;collapsible=1;marginBottom=0;whiteSpace=wrap;html=1;" vertex="1" parent="09qiv7vU6BCCD43riBRa-32">
          <mxGeometry x="60" y="30.640212765957443" width="140" height="52.5531914893617" as="geometry" />
        </mxCell>
        <mxCell id="09qiv7vU6BCCD43riBRa-5" value="+ userAuth()" style="text;strokeColor=none;fillColor=none;align=left;verticalAlign=top;spacingLeft=4;spacingRight=4;overflow=hidden;rotatable=0;points=[[0,0.5],[1,0.5]];portConstraint=eastwest;whiteSpace=wrap;html=1;" vertex="1" parent="09qiv7vU6BCCD43riBRa-4">
          <mxGeometry y="26" width="140" height="26.5531914893617" as="geometry" />
        </mxCell>
        <mxCell id="09qiv7vU6BCCD43riBRa-38" value="email-manager" style="swimlane;fontStyle=1;align=center;verticalAlign=top;childLayout=stackLayout;horizontal=1;startSize=26;horizontalStack=0;resizeParent=1;resizeParentMax=0;resizeLast=0;collapsible=1;marginBottom=0;whiteSpace=wrap;html=1;" vertex="1" parent="WIyWlLk6GJQsqaUBKTNV-1">
          <mxGeometry x="-430" y="250" width="360" height="60" as="geometry" />
        </mxCell>
        <mxCell id="09qiv7vU6BCCD43riBRa-40" value="" style="line;strokeWidth=1;fillColor=none;align=left;verticalAlign=middle;spacingTop=-1;spacingLeft=3;spacingRight=3;rotatable=0;labelPosition=right;points=[];portConstraint=eastwest;strokeColor=inherit;" vertex="1" parent="09qiv7vU6BCCD43riBRa-38">
          <mxGeometry y="26" width="360" height="8" as="geometry" />
        </mxCell>
        <mxCell id="09qiv7vU6BCCD43riBRa-41" value="+ sendEmail(userEmail: string, message: string): void" style="text;strokeColor=none;fillColor=none;align=left;verticalAlign=top;spacingLeft=4;spacingRight=4;overflow=hidden;rotatable=0;points=[[0,0.5],[1,0.5]];portConstraint=eastwest;whiteSpace=wrap;html=1;" vertex="1" parent="09qiv7vU6BCCD43riBRa-38">
          <mxGeometry y="34" width="360" height="26" as="geometry" />
        </mxCell>
        <mxCell id="09qiv7vU6BCCD43riBRa-70" value="address-dao" style="swimlane;fontStyle=1;align=center;verticalAlign=top;childLayout=stackLayout;horizontal=1;startSize=26;horizontalStack=0;resizeParent=1;resizeParentMax=0;resizeLast=0;collapsible=1;marginBottom=0;whiteSpace=wrap;html=1;" vertex="1" parent="WIyWlLk6GJQsqaUBKTNV-1">
          <mxGeometry x="1241" y="380" width="539" height="138" as="geometry" />
        </mxCell>
        <mxCell id="09qiv7vU6BCCD43riBRa-72" value="" style="line;strokeWidth=1;fillColor=none;align=left;verticalAlign=middle;spacingTop=-1;spacingLeft=3;spacingRight=3;rotatable=0;labelPosition=right;points=[];portConstraint=eastwest;strokeColor=inherit;" vertex="1" parent="09qiv7vU6BCCD43riBRa-70">
          <mxGeometry y="26" width="539" height="8" as="geometry" />
        </mxCell>
        <mxCell id="09qiv7vU6BCCD43riBRa-73" value="+ addAddress(address): void" style="text;strokeColor=none;fillColor=none;align=left;verticalAlign=top;spacingLeft=4;spacingRight=4;overflow=hidden;rotatable=0;points=[[0,0.5],[1,0.5]];portConstraint=eastwest;whiteSpace=wrap;html=1;" vertex="1" parent="09qiv7vU6BCCD43riBRa-70">
          <mxGeometry y="34" width="539" height="26" as="geometry" />
        </mxCell>
        <mxCell id="09qiv7vU6BCCD43riBRa-90" value="+ getAddress(addressId: int): address" style="text;strokeColor=none;fillColor=none;align=left;verticalAlign=top;spacingLeft=4;spacingRight=4;overflow=hidden;rotatable=0;points=[[0,0.5],[1,0.5]];portConstraint=eastwest;whiteSpace=wrap;html=1;" vertex="1" parent="09qiv7vU6BCCD43riBRa-70">
          <mxGeometry y="60" width="539" height="26" as="geometry" />
        </mxCell>
        <mxCell id="09qiv7vU6BCCD43riBRa-89" value="+ updateAddress(addressId: int, newzip: int, newadd1: string, newadd2: string): void" style="text;strokeColor=none;fillColor=none;align=left;verticalAlign=top;spacingLeft=4;spacingRight=4;overflow=hidden;rotatable=0;points=[[0,0.5],[1,0.5]];portConstraint=eastwest;whiteSpace=wrap;html=1;" vertex="1" parent="09qiv7vU6BCCD43riBRa-70">
          <mxGeometry y="86" width="539" height="26" as="geometry" />
        </mxCell>
        <mxCell id="09qiv7vU6BCCD43riBRa-80" value="+ deleteAddress(addressId: int): void" style="text;strokeColor=none;fillColor=none;align=left;verticalAlign=top;spacingLeft=4;spacingRight=4;overflow=hidden;rotatable=0;points=[[0,0.5],[1,0.5]];portConstraint=eastwest;whiteSpace=wrap;html=1;" vertex="1" parent="09qiv7vU6BCCD43riBRa-70">
          <mxGeometry y="112" width="539" height="26" as="geometry" />
        </mxCell>
        <mxCell id="09qiv7vU6BCCD43riBRa-85" value="userAddress-dao" style="swimlane;fontStyle=1;align=center;verticalAlign=top;childLayout=stackLayout;horizontal=1;startSize=26;horizontalStack=0;resizeParent=1;resizeParentMax=0;resizeLast=0;collapsible=1;marginBottom=0;whiteSpace=wrap;html=1;" vertex="1" parent="WIyWlLk6GJQsqaUBKTNV-1">
          <mxGeometry x="1241" y="542" width="539" height="112" as="geometry" />
        </mxCell>
        <mxCell id="09qiv7vU6BCCD43riBRa-87" value="" style="line;strokeWidth=1;fillColor=none;align=left;verticalAlign=middle;spacingTop=-1;spacingLeft=3;spacingRight=3;rotatable=0;labelPosition=right;points=[];portConstraint=eastwest;strokeColor=inherit;" vertex="1" parent="09qiv7vU6BCCD43riBRa-85">
          <mxGeometry y="26" width="539" height="8" as="geometry" />
        </mxCell>
        <mxCell id="09qiv7vU6BCCD43riBRa-88" value="&lt;div&gt;+ addUserAddress(username: string, addressId: int): void&lt;/div&gt;" style="text;strokeColor=none;fillColor=none;align=left;verticalAlign=top;spacingLeft=4;spacingRight=4;overflow=hidden;rotatable=0;points=[[0,0.5],[1,0.5]];portConstraint=eastwest;whiteSpace=wrap;html=1;" vertex="1" parent="09qiv7vU6BCCD43riBRa-85">
          <mxGeometry y="34" width="539" height="26" as="geometry" />
        </mxCell>
        <mxCell id="aCCsGAOV-Q1LSLL2z9md-24" value="+ getUserAddresses(username: string): userAddress[]" style="text;strokeColor=none;fillColor=none;align=left;verticalAlign=top;spacingLeft=4;spacingRight=4;overflow=hidden;rotatable=0;points=[[0,0.5],[1,0.5]];portConstraint=eastwest;whiteSpace=wrap;html=1;" vertex="1" parent="09qiv7vU6BCCD43riBRa-85">
          <mxGeometry y="60" width="539" height="26" as="geometry" />
        </mxCell>
        <mxCell id="09qiv7vU6BCCD43riBRa-92" value="+ deleteUserAddress(username: string, addressId: int): void" style="text;strokeColor=none;fillColor=none;align=left;verticalAlign=top;spacingLeft=4;spacingRight=4;overflow=hidden;rotatable=0;points=[[0,0.5],[1,0.5]];portConstraint=eastwest;whiteSpace=wrap;html=1;" vertex="1" parent="09qiv7vU6BCCD43riBRa-85">
          <mxGeometry y="86" width="539" height="26" as="geometry" />
        </mxCell>
        <mxCell id="09qiv7vU6BCCD43riBRa-91" value="system" style="shape=umlFrame;whiteSpace=wrap;html=1;pointerEvents=0;" vertex="1" parent="WIyWlLk6GJQsqaUBKTNV-1">
          <mxGeometry x="-450" y="100" width="400" height="230" as="geometry" />
        </mxCell>
        <mxCell id="09qiv7vU6BCCD43riBRa-105" value="food-dao" style="swimlane;fontStyle=1;align=center;verticalAlign=top;childLayout=stackLayout;horizontal=1;startSize=26;horizontalStack=0;resizeParent=1;resizeParentMax=0;resizeLast=0;collapsible=1;marginBottom=0;whiteSpace=wrap;html=1;" vertex="1" parent="WIyWlLk6GJQsqaUBKTNV-1">
          <mxGeometry x="1241" y="670" width="539" height="216" as="geometry" />
        </mxCell>
        <mxCell id="09qiv7vU6BCCD43riBRa-107" value="" style="line;strokeWidth=1;fillColor=none;align=left;verticalAlign=middle;spacingTop=-1;spacingLeft=3;spacingRight=3;rotatable=0;labelPosition=right;points=[];portConstraint=eastwest;strokeColor=inherit;" vertex="1" parent="09qiv7vU6BCCD43riBRa-105">
          <mxGeometry y="26" width="539" height="8" as="geometry" />
        </mxCell>
        <mxCell id="09qiv7vU6BCCD43riBRa-108" value="+ addFood(food): void" style="text;strokeColor=none;fillColor=none;align=left;verticalAlign=top;spacingLeft=4;spacingRight=4;overflow=hidden;rotatable=0;points=[[0,0.5],[1,0.5]];portConstraint=eastwest;whiteSpace=wrap;html=1;" vertex="1" parent="09qiv7vU6BCCD43riBRa-105">
          <mxGeometry y="34" width="539" height="26" as="geometry" />
        </mxCell>
        <mxCell id="09qiv7vU6BCCD43riBRa-109" value="+ updateFood(foodId: int, newname: string, newdesc: string, newprice: int): void" style="text;strokeColor=none;fillColor=none;align=left;verticalAlign=top;spacingLeft=4;spacingRight=4;overflow=hidden;rotatable=0;points=[[0,0.5],[1,0.5]];portConstraint=eastwest;whiteSpace=wrap;html=1;" vertex="1" parent="09qiv7vU6BCCD43riBRa-105">
          <mxGeometry y="60" width="539" height="26" as="geometry" />
        </mxCell>
        <mxCell id="aCCsGAOV-Q1LSLL2z9md-0" value="+ updateFoodPrice(foodInt: int, newprice: int): void" style="text;strokeColor=none;fillColor=none;align=left;verticalAlign=top;spacingLeft=4;spacingRight=4;overflow=hidden;rotatable=0;points=[[0,0.5],[1,0.5]];portConstraint=eastwest;whiteSpace=wrap;html=1;" vertex="1" parent="09qiv7vU6BCCD43riBRa-105">
          <mxGeometry y="86" width="539" height="26" as="geometry" />
        </mxCell>
        <mxCell id="09qiv7vU6BCCD43riBRa-110" value="+ getFood(foodId: int): food" style="text;strokeColor=none;fillColor=none;align=left;verticalAlign=top;spacingLeft=4;spacingRight=4;overflow=hidden;rotatable=0;points=[[0,0.5],[1,0.5]];portConstraint=eastwest;whiteSpace=wrap;html=1;" vertex="1" parent="09qiv7vU6BCCD43riBRa-105">
          <mxGeometry y="112" width="539" height="26" as="geometry" />
        </mxCell>
        <mxCell id="aCCsGAOV-Q1LSLL2z9md-6" value="+ getFoodOfRestaurant(restaurantId: int): food[]" style="text;strokeColor=none;fillColor=none;align=left;verticalAlign=top;spacingLeft=4;spacingRight=4;overflow=hidden;rotatable=0;points=[[0,0.5],[1,0.5]];portConstraint=eastwest;whiteSpace=wrap;html=1;" vertex="1" parent="09qiv7vU6BCCD43riBRa-105">
          <mxGeometry y="138" width="539" height="26" as="geometry" />
        </mxCell>
        <mxCell id="yzFltJAv8uNfXiM1kdK4-212" value="+ getFoodsByTag(foodtag: string): food[]" style="text;strokeColor=none;fillColor=none;align=left;verticalAlign=top;spacingLeft=4;spacingRight=4;overflow=hidden;rotatable=0;points=[[0,0.5],[1,0.5]];portConstraint=eastwest;whiteSpace=wrap;html=1;" vertex="1" parent="09qiv7vU6BCCD43riBRa-105">
          <mxGeometry y="164" width="539" height="26" as="geometry" />
        </mxCell>
        <mxCell id="aCCsGAOV-Q1LSLL2z9md-5" value="+ deleteFood(foodId: int): void" style="text;strokeColor=none;fillColor=none;align=left;verticalAlign=top;spacingLeft=4;spacingRight=4;overflow=hidden;rotatable=0;points=[[0,0.5],[1,0.5]];portConstraint=eastwest;whiteSpace=wrap;html=1;" vertex="1" parent="09qiv7vU6BCCD43riBRa-105">
          <mxGeometry y="190" width="539" height="26" as="geometry" />
        </mxCell>
        <mxCell id="aCCsGAOV-Q1LSLL2z9md-11" value="restaurant-dao" style="swimlane;fontStyle=1;align=center;verticalAlign=top;childLayout=stackLayout;horizontal=1;startSize=26;horizontalStack=0;resizeParent=1;resizeParentMax=0;resizeLast=0;collapsible=1;marginBottom=0;whiteSpace=wrap;html=1;" vertex="1" parent="WIyWlLk6GJQsqaUBKTNV-1">
          <mxGeometry x="1241" y="908" width="539" height="372" as="geometry" />
        </mxCell>
        <mxCell id="aCCsGAOV-Q1LSLL2z9md-13" value="" style="line;strokeWidth=1;fillColor=none;align=left;verticalAlign=middle;spacingTop=-1;spacingLeft=3;spacingRight=3;rotatable=0;labelPosition=right;points=[];portConstraint=eastwest;strokeColor=inherit;" vertex="1" parent="aCCsGAOV-Q1LSLL2z9md-11">
          <mxGeometry y="26" width="539" height="8" as="geometry" />
        </mxCell>
        <mxCell id="aCCsGAOV-Q1LSLL2z9md-14" value="+ addRestaurant(name: string): void" style="text;strokeColor=none;fillColor=none;align=left;verticalAlign=top;spacingLeft=4;spacingRight=4;overflow=hidden;rotatable=0;points=[[0,0.5],[1,0.5]];portConstraint=eastwest;whiteSpace=wrap;html=1;" vertex="1" parent="aCCsGAOV-Q1LSLL2z9md-11">
          <mxGeometry y="34" width="539" height="26" as="geometry" />
        </mxCell>
        <mxCell id="aCCsGAOV-Q1LSLL2z9md-23" value="+ getRestaurantById(restaurantId: int): restaurant" style="text;strokeColor=none;fillColor=none;align=left;verticalAlign=top;spacingLeft=4;spacingRight=4;overflow=hidden;rotatable=0;points=[[0,0.5],[1,0.5]];portConstraint=eastwest;whiteSpace=wrap;html=1;" vertex="1" parent="aCCsGAOV-Q1LSLL2z9md-11">
          <mxGeometry y="60" width="539" height="26" as="geometry" />
        </mxCell>
        <mxCell id="aCCsGAOV-Q1LSLL2z9md-26" value="+ getRestaurantsByName(name: string): restaurant" style="text;strokeColor=none;fillColor=none;align=left;verticalAlign=top;spacingLeft=4;spacingRight=4;overflow=hidden;rotatable=0;points=[[0,0.5],[1,0.5]];portConstraint=eastwest;whiteSpace=wrap;html=1;" vertex="1" parent="aCCsGAOV-Q1LSLL2z9md-11">
          <mxGeometry y="86" width="539" height="26" as="geometry" />
        </mxCell>
        <mxCell id="aCCsGAOV-Q1LSLL2z9md-27" value="+ getRestaurantByAddress(addressId: int): restaurant" style="text;strokeColor=none;fillColor=none;align=left;verticalAlign=top;spacingLeft=4;spacingRight=4;overflow=hidden;rotatable=0;points=[[0,0.5],[1,0.5]];portConstraint=eastwest;whiteSpace=wrap;html=1;" vertex="1" parent="aCCsGAOV-Q1LSLL2z9md-11">
          <mxGeometry y="112" width="539" height="26" as="geometry" />
        </mxCell>
        <mxCell id="aCCsGAOV-Q1LSLL2z9md-28" value="+ updateRestaurant(restaurantId: int, newname: string, newAddressId: int): void" style="text;strokeColor=none;fillColor=none;align=left;verticalAlign=top;spacingLeft=4;spacingRight=4;overflow=hidden;rotatable=0;points=[[0,0.5],[1,0.5]];portConstraint=eastwest;whiteSpace=wrap;html=1;" vertex="1" parent="aCCsGAOV-Q1LSLL2z9md-11">
          <mxGeometry y="138" width="539" height="26" as="geometry" />
        </mxCell>
        <mxCell id="aCCsGAOV-Q1LSLL2z9md-116" value="+ updateRestaurantMon(newmon: string): void" style="text;strokeColor=none;fillColor=none;align=left;verticalAlign=top;spacingLeft=4;spacingRight=4;overflow=hidden;rotatable=0;points=[[0,0.5],[1,0.5]];portConstraint=eastwest;whiteSpace=wrap;html=1;" vertex="1" parent="aCCsGAOV-Q1LSLL2z9md-11">
          <mxGeometry y="164" width="539" height="26" as="geometry" />
        </mxCell>
        <mxCell id="aCCsGAOV-Q1LSLL2z9md-117" value="+ updateRestaurantTue(newtue: string): void" style="text;strokeColor=none;fillColor=none;align=left;verticalAlign=top;spacingLeft=4;spacingRight=4;overflow=hidden;rotatable=0;points=[[0,0.5],[1,0.5]];portConstraint=eastwest;whiteSpace=wrap;html=1;" vertex="1" parent="aCCsGAOV-Q1LSLL2z9md-11">
          <mxGeometry y="190" width="539" height="26" as="geometry" />
        </mxCell>
        <mxCell id="aCCsGAOV-Q1LSLL2z9md-118" value="+ updateRestaurantWed(newwed: string): void" style="text;strokeColor=none;fillColor=none;align=left;verticalAlign=top;spacingLeft=4;spacingRight=4;overflow=hidden;rotatable=0;points=[[0,0.5],[1,0.5]];portConstraint=eastwest;whiteSpace=wrap;html=1;" vertex="1" parent="aCCsGAOV-Q1LSLL2z9md-11">
          <mxGeometry y="216" width="539" height="26" as="geometry" />
        </mxCell>
        <mxCell id="aCCsGAOV-Q1LSLL2z9md-122" value="+ updateRestaurantThu(newthu: string): void" style="text;strokeColor=none;fillColor=none;align=left;verticalAlign=top;spacingLeft=4;spacingRight=4;overflow=hidden;rotatable=0;points=[[0,0.5],[1,0.5]];portConstraint=eastwest;whiteSpace=wrap;html=1;" vertex="1" parent="aCCsGAOV-Q1LSLL2z9md-11">
          <mxGeometry y="242" width="539" height="26" as="geometry" />
        </mxCell>
        <mxCell id="aCCsGAOV-Q1LSLL2z9md-121" value="+ updateRestaurantFri(newfri: string): void" style="text;strokeColor=none;fillColor=none;align=left;verticalAlign=top;spacingLeft=4;spacingRight=4;overflow=hidden;rotatable=0;points=[[0,0.5],[1,0.5]];portConstraint=eastwest;whiteSpace=wrap;html=1;" vertex="1" parent="aCCsGAOV-Q1LSLL2z9md-11">
          <mxGeometry y="268" width="539" height="26" as="geometry" />
        </mxCell>
        <mxCell id="aCCsGAOV-Q1LSLL2z9md-119" value="+ updateRestaurantSat(newsat: string): void" style="text;strokeColor=none;fillColor=none;align=left;verticalAlign=top;spacingLeft=4;spacingRight=4;overflow=hidden;rotatable=0;points=[[0,0.5],[1,0.5]];portConstraint=eastwest;whiteSpace=wrap;html=1;" vertex="1" parent="aCCsGAOV-Q1LSLL2z9md-11">
          <mxGeometry y="294" width="539" height="26" as="geometry" />
        </mxCell>
        <mxCell id="aCCsGAOV-Q1LSLL2z9md-120" value="+ updateRestaurantSun(newsun: string): void" style="text;strokeColor=none;fillColor=none;align=left;verticalAlign=top;spacingLeft=4;spacingRight=4;overflow=hidden;rotatable=0;points=[[0,0.5],[1,0.5]];portConstraint=eastwest;whiteSpace=wrap;html=1;" vertex="1" parent="aCCsGAOV-Q1LSLL2z9md-11">
          <mxGeometry y="320" width="539" height="26" as="geometry" />
        </mxCell>
        <mxCell id="aCCsGAOV-Q1LSLL2z9md-29" value="+ deleteRestaurant(restaurantId: int): void" style="text;strokeColor=none;fillColor=none;align=left;verticalAlign=top;spacingLeft=4;spacingRight=4;overflow=hidden;rotatable=0;points=[[0,0.5],[1,0.5]];portConstraint=eastwest;whiteSpace=wrap;html=1;" vertex="1" parent="aCCsGAOV-Q1LSLL2z9md-11">
          <mxGeometry y="346" width="539" height="26" as="geometry" />
        </mxCell>
        <mxCell id="aCCsGAOV-Q1LSLL2z9md-15" value="" style="endArrow=block;endFill=1;html=1;edgeStyle=orthogonalEdgeStyle;align=left;verticalAlign=top;rounded=0;exitX=0;exitY=0.019;exitDx=0;exitDy=0;exitPerimeter=0;entryX=1;entryY=0.5;entryDx=0;entryDy=0;" edge="1" parent="WIyWlLk6GJQsqaUBKTNV-1" source="09qiv7vU6BCCD43riBRa-8" target="zkfFHV4jXpPFQw0GAbJ--1">
          <mxGeometry x="-1" relative="1" as="geometry">
            <mxPoint x="940" y="440" as="sourcePoint" />
            <mxPoint x="1080" y="130" as="targetPoint" />
          </mxGeometry>
        </mxCell>
        <mxCell id="aCCsGAOV-Q1LSLL2z9md-17" value="routes" style="shape=umlFrame;whiteSpace=wrap;html=1;pointerEvents=0;" vertex="1" parent="WIyWlLk6GJQsqaUBKTNV-1">
          <mxGeometry x="50" y="330" width="520" height="1380" as="geometry" />
        </mxCell>
        <mxCell id="aCCsGAOV-Q1LSLL2z9md-18" value="directions-service" style="swimlane;fontStyle=1;align=center;verticalAlign=top;childLayout=stackLayout;horizontal=1;startSize=26;horizontalStack=0;resizeParent=1;resizeParentMax=0;resizeLast=0;collapsible=1;marginBottom=0;whiteSpace=wrap;html=1;" vertex="1" parent="WIyWlLk6GJQsqaUBKTNV-1">
          <mxGeometry x="-430" y="150" width="360" height="86" as="geometry" />
        </mxCell>
        <mxCell id="aCCsGAOV-Q1LSLL2z9md-20" value="" style="line;strokeWidth=1;fillColor=none;align=left;verticalAlign=middle;spacingTop=-1;spacingLeft=3;spacingRight=3;rotatable=0;labelPosition=right;points=[];portConstraint=eastwest;strokeColor=inherit;" vertex="1" parent="aCCsGAOV-Q1LSLL2z9md-18">
          <mxGeometry y="26" width="360" height="8" as="geometry" />
        </mxCell>
        <mxCell id="aCCsGAOV-Q1LSLL2z9md-21" value="+ calculatePath(source: string, destination: string): google.Map" style="text;strokeColor=none;fillColor=none;align=left;verticalAlign=top;spacingLeft=4;spacingRight=4;overflow=hidden;rotatable=0;points=[[0,0.5],[1,0.5]];portConstraint=eastwest;whiteSpace=wrap;html=1;" vertex="1" parent="aCCsGAOV-Q1LSLL2z9md-18">
          <mxGeometry y="34" width="360" height="26" as="geometry" />
        </mxCell>
        <mxCell id="aCCsGAOV-Q1LSLL2z9md-22" value="+ zipToCity(zip: int): string" style="text;strokeColor=none;fillColor=none;align=left;verticalAlign=top;spacingLeft=4;spacingRight=4;overflow=hidden;rotatable=0;points=[[0,0.5],[1,0.5]];portConstraint=eastwest;whiteSpace=wrap;html=1;" vertex="1" parent="aCCsGAOV-Q1LSLL2z9md-18">
          <mxGeometry y="60" width="360" height="26" as="geometry" />
        </mxCell>
        <mxCell id="aCCsGAOV-Q1LSLL2z9md-30" value="cart-dao" style="swimlane;fontStyle=1;align=center;verticalAlign=top;childLayout=stackLayout;horizontal=1;startSize=26;horizontalStack=0;resizeParent=1;resizeParentMax=0;resizeLast=0;collapsible=1;marginBottom=0;whiteSpace=wrap;html=1;" vertex="1" parent="WIyWlLk6GJQsqaUBKTNV-1">
          <mxGeometry x="1241" y="1430" width="539" height="164" as="geometry" />
        </mxCell>
        <mxCell id="aCCsGAOV-Q1LSLL2z9md-32" value="" style="line;strokeWidth=1;fillColor=none;align=left;verticalAlign=middle;spacingTop=-1;spacingLeft=3;spacingRight=3;rotatable=0;labelPosition=right;points=[];portConstraint=eastwest;strokeColor=inherit;" vertex="1" parent="aCCsGAOV-Q1LSLL2z9md-30">
          <mxGeometry y="26" width="539" height="8" as="geometry" />
        </mxCell>
        <mxCell id="aCCsGAOV-Q1LSLL2z9md-33" value="&lt;div&gt;+ addCart(username: string): void&lt;/div&gt;" style="text;strokeColor=none;fillColor=none;align=left;verticalAlign=top;spacingLeft=4;spacingRight=4;overflow=hidden;rotatable=0;points=[[0,0.5],[1,0.5]];portConstraint=eastwest;whiteSpace=wrap;html=1;" vertex="1" parent="aCCsGAOV-Q1LSLL2z9md-30">
          <mxGeometry y="34" width="539" height="26" as="geometry" />
        </mxCell>
        <mxCell id="aCCsGAOV-Q1LSLL2z9md-44" value="+ getCartByUsername(username: string): cart" style="text;strokeColor=none;fillColor=none;align=left;verticalAlign=top;spacingLeft=4;spacingRight=4;overflow=hidden;rotatable=0;points=[[0,0.5],[1,0.5]];portConstraint=eastwest;whiteSpace=wrap;html=1;" vertex="1" parent="aCCsGAOV-Q1LSLL2z9md-30">
          <mxGeometry y="60" width="539" height="26" as="geometry" />
        </mxCell>
        <mxCell id="aCCsGAOV-Q1LSLL2z9md-45" value="+ getCartById(cartId: int): cart" style="text;strokeColor=none;fillColor=none;align=left;verticalAlign=top;spacingLeft=4;spacingRight=4;overflow=hidden;rotatable=0;points=[[0,0.5],[1,0.5]];portConstraint=eastwest;whiteSpace=wrap;html=1;" vertex="1" parent="aCCsGAOV-Q1LSLL2z9md-30">
          <mxGeometry y="86" width="539" height="26" as="geometry" />
        </mxCell>
        <mxCell id="yzFltJAv8uNfXiM1kdK4-199" value="+ updateCartType(cartId: int, newtype: string): void" style="text;strokeColor=none;fillColor=none;align=left;verticalAlign=top;spacingLeft=4;spacingRight=4;overflow=hidden;rotatable=0;points=[[0,0.5],[1,0.5]];portConstraint=eastwest;whiteSpace=wrap;html=1;" vertex="1" parent="aCCsGAOV-Q1LSLL2z9md-30">
          <mxGeometry y="112" width="539" height="26" as="geometry" />
        </mxCell>
        <mxCell id="aCCsGAOV-Q1LSLL2z9md-43" value="+ deleteCart(username: string): void" style="text;strokeColor=none;fillColor=none;align=left;verticalAlign=top;spacingLeft=4;spacingRight=4;overflow=hidden;rotatable=0;points=[[0,0.5],[1,0.5]];portConstraint=eastwest;whiteSpace=wrap;html=1;" vertex="1" parent="aCCsGAOV-Q1LSLL2z9md-30">
          <mxGeometry y="138" width="539" height="26" as="geometry" />
        </mxCell>
        <mxCell id="aCCsGAOV-Q1LSLL2z9md-46" value="cartFood-dao" style="swimlane;fontStyle=1;align=center;verticalAlign=top;childLayout=stackLayout;horizontal=1;startSize=26;horizontalStack=0;resizeParent=1;resizeParentMax=0;resizeLast=0;collapsible=1;marginBottom=0;whiteSpace=wrap;html=1;" vertex="1" parent="WIyWlLk6GJQsqaUBKTNV-1">
          <mxGeometry x="1241" y="1616" width="539" height="138" as="geometry" />
        </mxCell>
        <mxCell id="aCCsGAOV-Q1LSLL2z9md-48" value="" style="line;strokeWidth=1;fillColor=none;align=left;verticalAlign=middle;spacingTop=-1;spacingLeft=3;spacingRight=3;rotatable=0;labelPosition=right;points=[];portConstraint=eastwest;strokeColor=inherit;" vertex="1" parent="aCCsGAOV-Q1LSLL2z9md-46">
          <mxGeometry y="26" width="539" height="8" as="geometry" />
        </mxCell>
        <mxCell id="aCCsGAOV-Q1LSLL2z9md-49" value="+ addCartFood(cartFood): void" style="text;strokeColor=none;fillColor=none;align=left;verticalAlign=top;spacingLeft=4;spacingRight=4;overflow=hidden;rotatable=0;points=[[0,0.5],[1,0.5]];portConstraint=eastwest;whiteSpace=wrap;html=1;" vertex="1" parent="aCCsGAOV-Q1LSLL2z9md-46">
          <mxGeometry y="34" width="539" height="26" as="geometry" />
        </mxCell>
        <mxCell id="aCCsGAOV-Q1LSLL2z9md-90" value="+ getCartFoods(cartId: int): cartFood[]" style="text;strokeColor=none;fillColor=none;align=left;verticalAlign=top;spacingLeft=4;spacingRight=4;overflow=hidden;rotatable=0;points=[[0,0.5],[1,0.5]];portConstraint=eastwest;whiteSpace=wrap;html=1;" vertex="1" parent="aCCsGAOV-Q1LSLL2z9md-46">
          <mxGeometry y="60" width="539" height="26" as="geometry" />
        </mxCell>
        <mxCell id="aCCsGAOV-Q1LSLL2z9md-91" value="+ updateCartFoodAmount(cartId: int, foodId: int, newamount: int): void" style="text;strokeColor=none;fillColor=none;align=left;verticalAlign=top;spacingLeft=4;spacingRight=4;overflow=hidden;rotatable=0;points=[[0,0.5],[1,0.5]];portConstraint=eastwest;whiteSpace=wrap;html=1;" vertex="1" parent="aCCsGAOV-Q1LSLL2z9md-46">
          <mxGeometry y="86" width="539" height="26" as="geometry" />
        </mxCell>
        <mxCell id="aCCsGAOV-Q1LSLL2z9md-92" value="+ deleteCartFood(cartId: int, foodId: int): void" style="text;strokeColor=none;fillColor=none;align=left;verticalAlign=top;spacingLeft=4;spacingRight=4;overflow=hidden;rotatable=0;points=[[0,0.5],[1,0.5]];portConstraint=eastwest;whiteSpace=wrap;html=1;" vertex="1" parent="aCCsGAOV-Q1LSLL2z9md-46">
          <mxGeometry y="112" width="539" height="26" as="geometry" />
        </mxCell>
        <mxCell id="aCCsGAOV-Q1LSLL2z9md-107" value="order-dao" style="swimlane;fontStyle=1;align=center;verticalAlign=top;childLayout=stackLayout;horizontal=1;startSize=26;horizontalStack=0;resizeParent=1;resizeParentMax=0;resizeLast=0;collapsible=1;marginBottom=0;whiteSpace=wrap;html=1;" vertex="1" parent="WIyWlLk6GJQsqaUBKTNV-1">
          <mxGeometry x="1241" y="1780" width="539" height="190" as="geometry" />
        </mxCell>
        <mxCell id="aCCsGAOV-Q1LSLL2z9md-109" value="" style="line;strokeWidth=1;fillColor=none;align=left;verticalAlign=middle;spacingTop=-1;spacingLeft=3;spacingRight=3;rotatable=0;labelPosition=right;points=[];portConstraint=eastwest;strokeColor=inherit;" vertex="1" parent="aCCsGAOV-Q1LSLL2z9md-107">
          <mxGeometry y="26" width="539" height="8" as="geometry" />
        </mxCell>
        <mxCell id="aCCsGAOV-Q1LSLL2z9md-110" value="+ addOrder(order): void" style="text;strokeColor=none;fillColor=none;align=left;verticalAlign=top;spacingLeft=4;spacingRight=4;overflow=hidden;rotatable=0;points=[[0,0.5],[1,0.5]];portConstraint=eastwest;whiteSpace=wrap;html=1;" vertex="1" parent="aCCsGAOV-Q1LSLL2z9md-107">
          <mxGeometry y="34" width="539" height="26" as="geometry" />
        </mxCell>
        <mxCell id="aCCsGAOV-Q1LSLL2z9md-111" value="+ getOrderByRecipient(recipientUsername: string): order" style="text;strokeColor=none;fillColor=none;align=left;verticalAlign=top;spacingLeft=4;spacingRight=4;overflow=hidden;rotatable=0;points=[[0,0.5],[1,0.5]];portConstraint=eastwest;whiteSpace=wrap;html=1;" vertex="1" parent="aCCsGAOV-Q1LSLL2z9md-107">
          <mxGeometry y="60" width="539" height="26" as="geometry" />
        </mxCell>
        <mxCell id="aCCsGAOV-Q1LSLL2z9md-112" value="+ getOrderByDeliverer(delivererUsername: string): order" style="text;strokeColor=none;fillColor=none;align=left;verticalAlign=top;spacingLeft=4;spacingRight=4;overflow=hidden;rotatable=0;points=[[0,0.5],[1,0.5]];portConstraint=eastwest;whiteSpace=wrap;html=1;" vertex="1" parent="aCCsGAOV-Q1LSLL2z9md-107">
          <mxGeometry y="86" width="539" height="26" as="geometry" />
        </mxCell>
        <mxCell id="aCCsGAOV-Q1LSLL2z9md-113" value="+ getOrderByRestaurant(restaurantId: int): order" style="text;strokeColor=none;fillColor=none;align=left;verticalAlign=top;spacingLeft=4;spacingRight=4;overflow=hidden;rotatable=0;points=[[0,0.5],[1,0.5]];portConstraint=eastwest;whiteSpace=wrap;html=1;" vertex="1" parent="aCCsGAOV-Q1LSLL2z9md-107">
          <mxGeometry y="112" width="539" height="26" as="geometry" />
        </mxCell>
        <mxCell id="aCCsGAOV-Q1LSLL2z9md-114" value="+ updateOrderStatus(orderId: int, newstatus: string): void" style="text;strokeColor=none;fillColor=none;align=left;verticalAlign=top;spacingLeft=4;spacingRight=4;overflow=hidden;rotatable=0;points=[[0,0.5],[1,0.5]];portConstraint=eastwest;whiteSpace=wrap;html=1;" vertex="1" parent="aCCsGAOV-Q1LSLL2z9md-107">
          <mxGeometry y="138" width="539" height="26" as="geometry" />
        </mxCell>
        <mxCell id="aCCsGAOV-Q1LSLL2z9md-115" value="+ deleteOrder(orderId: int): void" style="text;strokeColor=none;fillColor=none;align=left;verticalAlign=top;spacingLeft=4;spacingRight=4;overflow=hidden;rotatable=0;points=[[0,0.5],[1,0.5]];portConstraint=eastwest;whiteSpace=wrap;html=1;" vertex="1" parent="aCCsGAOV-Q1LSLL2z9md-107">
          <mxGeometry y="164" width="539" height="26" as="geometry" />
        </mxCell>
        <mxCell id="aCCsGAOV-Q1LSLL2z9md-123" value="likedRestaurant" style="swimlane;fontStyle=1;align=center;verticalAlign=top;childLayout=stackLayout;horizontal=1;startSize=26;horizontalStack=0;resizeParent=1;resizeParentMax=0;resizeLast=0;collapsible=1;marginBottom=0;whiteSpace=wrap;html=1;" vertex="1" parent="WIyWlLk6GJQsqaUBKTNV-1">
          <mxGeometry x="1241" y="1300" width="539" height="112" as="geometry" />
        </mxCell>
        <mxCell id="aCCsGAOV-Q1LSLL2z9md-125" value="" style="line;strokeWidth=1;fillColor=none;align=left;verticalAlign=middle;spacingTop=-1;spacingLeft=3;spacingRight=3;rotatable=0;labelPosition=right;points=[];portConstraint=eastwest;strokeColor=inherit;" vertex="1" parent="aCCsGAOV-Q1LSLL2z9md-123">
          <mxGeometry y="26" width="539" height="8" as="geometry" />
        </mxCell>
        <mxCell id="aCCsGAOV-Q1LSLL2z9md-126" value="+ addLikedRestaurant(username: string, restaurantId: int): void" style="text;strokeColor=none;fillColor=none;align=left;verticalAlign=top;spacingLeft=4;spacingRight=4;overflow=hidden;rotatable=0;points=[[0,0.5],[1,0.5]];portConstraint=eastwest;whiteSpace=wrap;html=1;" vertex="1" parent="aCCsGAOV-Q1LSLL2z9md-123">
          <mxGeometry y="34" width="539" height="26" as="geometry" />
        </mxCell>
        <mxCell id="aCCsGAOV-Q1LSLL2z9md-127" value="+ getLikedRestaurants(username: string): likedRestaurant[]" style="text;strokeColor=none;fillColor=none;align=left;verticalAlign=top;spacingLeft=4;spacingRight=4;overflow=hidden;rotatable=0;points=[[0,0.5],[1,0.5]];portConstraint=eastwest;whiteSpace=wrap;html=1;" vertex="1" parent="aCCsGAOV-Q1LSLL2z9md-123">
          <mxGeometry y="60" width="539" height="26" as="geometry" />
        </mxCell>
        <mxCell id="aCCsGAOV-Q1LSLL2z9md-128" value="+ deleteLikedRestaurant(username: string, restaurantId: int): void" style="text;strokeColor=none;fillColor=none;align=left;verticalAlign=top;spacingLeft=4;spacingRight=4;overflow=hidden;rotatable=0;points=[[0,0.5],[1,0.5]];portConstraint=eastwest;whiteSpace=wrap;html=1;" vertex="1" parent="aCCsGAOV-Q1LSLL2z9md-123">
          <mxGeometry y="86" width="539" height="26" as="geometry" />
        </mxCell>
        <mxCell id="yzFltJAv8uNfXiM1kdK4-218" style="edgeStyle=orthogonalEdgeStyle;rounded=0;orthogonalLoop=1;jettySize=auto;html=1;entryX=1.005;entryY=0.421;entryDx=0;entryDy=0;exitX=0.5;exitY=0;exitDx=0;exitDy=0;entryPerimeter=0;" edge="1" parent="WIyWlLk6GJQsqaUBKTNV-1" source="yzFltJAv8uNfXiM1kdK4-0" target="09qiv7vU6BCCD43riBRa-91">
          <mxGeometry relative="1" as="geometry">
            <Array as="points">
              <mxPoint x="310" y="197" />
            </Array>
          </mxGeometry>
        </mxCell>
        <mxCell id="yzFltJAv8uNfXiM1kdK4-0" value="route-users" style="swimlane;fontStyle=1;align=center;verticalAlign=top;childLayout=stackLayout;horizontal=1;startSize=26;horizontalStack=0;resizeParent=1;resizeParentMax=0;resizeLast=0;collapsible=1;marginBottom=0;whiteSpace=wrap;html=1;" vertex="1" parent="WIyWlLk6GJQsqaUBKTNV-1">
          <mxGeometry x="80" y="405" width="460" height="658" as="geometry" />
        </mxCell>
        <mxCell id="yzFltJAv8uNfXiM1kdK4-1" value="+ userDao: user-dao" style="text;strokeColor=none;fillColor=none;align=left;verticalAlign=top;spacingLeft=4;spacingRight=4;overflow=hidden;rotatable=0;points=[[0,0.5],[1,0.5]];portConstraint=eastwest;whiteSpace=wrap;html=1;" vertex="1" parent="yzFltJAv8uNfXiM1kdK4-0">
          <mxGeometry y="26" width="460" height="26" as="geometry" />
        </mxCell>
        <mxCell id="yzFltJAv8uNfXiM1kdK4-213" value="+ emailManager: email-manager" style="text;strokeColor=none;fillColor=none;align=left;verticalAlign=top;spacingLeft=4;spacingRight=4;overflow=hidden;rotatable=0;points=[[0,0.5],[1,0.5]];portConstraint=eastwest;whiteSpace=wrap;html=1;" vertex="1" parent="yzFltJAv8uNfXiM1kdK4-0">
          <mxGeometry y="52" width="460" height="26" as="geometry" />
        </mxCell>
        <mxCell id="yzFltJAv8uNfXiM1kdK4-219" value="+ directionsService: directions-service" style="text;strokeColor=none;fillColor=none;align=left;verticalAlign=top;spacingLeft=4;spacingRight=4;overflow=hidden;rotatable=0;points=[[0,0.5],[1,0.5]];portConstraint=eastwest;whiteSpace=wrap;html=1;" vertex="1" parent="yzFltJAv8uNfXiM1kdK4-0">
          <mxGeometry y="78" width="460" height="26" as="geometry" />
        </mxCell>
        <mxCell id="yzFltJAv8uNfXiM1kdK4-10" value="+ router: express.Router()" style="text;strokeColor=none;fillColor=none;align=left;verticalAlign=top;spacingLeft=4;spacingRight=4;overflow=hidden;rotatable=0;points=[[0,0.5],[1,0.5]];portConstraint=eastwest;whiteSpace=wrap;html=1;" vertex="1" parent="yzFltJAv8uNfXiM1kdK4-0">
          <mxGeometry y="104" width="460" height="26" as="geometry" />
        </mxCell>
        <mxCell id="yzFltJAv8uNfXiM1kdK4-33" value="+ jwtSecret: userAuth" style="text;strokeColor=none;fillColor=none;align=left;verticalAlign=top;spacingLeft=4;spacingRight=4;overflow=hidden;rotatable=0;points=[[0,0.5],[1,0.5]];portConstraint=eastwest;whiteSpace=wrap;html=1;" vertex="1" parent="yzFltJAv8uNfXiM1kdK4-0">
          <mxGeometry y="130" width="460" height="26" as="geometry" />
        </mxCell>
        <mxCell id="yzFltJAv8uNfXiM1kdK4-2" value="" style="line;strokeWidth=1;fillColor=none;align=left;verticalAlign=middle;spacingTop=-1;spacingLeft=3;spacingRight=3;rotatable=0;labelPosition=right;points=[];portConstraint=eastwest;strokeColor=inherit;" vertex="1" parent="yzFltJAv8uNfXiM1kdK4-0">
          <mxGeometry y="156" width="460" height="8" as="geometry" />
        </mxCell>
        <mxCell id="yzFltJAv8uNfXiM1kdK4-3" value="+ router.get(&quot;/register&quot;): res.render" style="text;strokeColor=none;fillColor=none;align=left;verticalAlign=top;spacingLeft=4;spacingRight=4;overflow=hidden;rotatable=0;points=[[0,0.5],[1,0.5]];portConstraint=eastwest;whiteSpace=wrap;html=1;" vertex="1" parent="yzFltJAv8uNfXiM1kdK4-0">
          <mxGeometry y="164" width="460" height="26" as="geometry" />
        </mxCell>
        <mxCell id="yzFltJAv8uNfXiM1kdK4-11" value="+ router.get(&quot;/login&quot;): res.render" style="text;strokeColor=none;fillColor=none;align=left;verticalAlign=top;spacingLeft=4;spacingRight=4;overflow=hidden;rotatable=0;points=[[0,0.5],[1,0.5]];portConstraint=eastwest;whiteSpace=wrap;html=1;" vertex="1" parent="yzFltJAv8uNfXiM1kdK4-0">
          <mxGeometry y="190" width="460" height="26" as="geometry" />
        </mxCell>
        <mxCell id="yzFltJAv8uNfXiM1kdK4-20" value="+ router.get(&quot;/&quot;): res.render" style="text;strokeColor=none;fillColor=none;align=left;verticalAlign=top;spacingLeft=4;spacingRight=4;overflow=hidden;rotatable=0;points=[[0,0.5],[1,0.5]];portConstraint=eastwest;whiteSpace=wrap;html=1;" vertex="1" parent="yzFltJAv8uNfXiM1kdK4-0">
          <mxGeometry y="216" width="460" height="26" as="geometry" />
        </mxCell>
        <mxCell id="yzFltJAv8uNfXiM1kdK4-24" value="+ router.post(&quot;/registeruser&quot;): res.redirect" style="text;strokeColor=none;fillColor=none;align=left;verticalAlign=top;spacingLeft=4;spacingRight=4;overflow=hidden;rotatable=0;points=[[0,0.5],[1,0.5]];portConstraint=eastwest;whiteSpace=wrap;html=1;" vertex="1" parent="yzFltJAv8uNfXiM1kdK4-0">
          <mxGeometry y="242" width="460" height="26" as="geometry" />
        </mxCell>
        <mxCell id="yzFltJAv8uNfXiM1kdK4-25" value="" style="endArrow=block;endFill=1;html=1;edgeStyle=orthogonalEdgeStyle;align=left;verticalAlign=top;rounded=0;entryX=1;entryY=0.5;entryDx=0;entryDy=0;exitX=1;exitY=0.5;exitDx=0;exitDy=0;" edge="1" parent="yzFltJAv8uNfXiM1kdK4-0" source="yzFltJAv8uNfXiM1kdK4-24" target="yzFltJAv8uNfXiM1kdK4-20">
          <mxGeometry x="-1" relative="1" as="geometry">
            <mxPoint x="390" y="224" as="sourcePoint" />
            <mxPoint x="550" y="224" as="targetPoint" />
          </mxGeometry>
        </mxCell>
        <mxCell id="yzFltJAv8uNfXiM1kdK4-27" value="+ router.post(&quot;loginuser&quot;): res.redirect" style="text;strokeColor=none;fillColor=none;align=left;verticalAlign=top;spacingLeft=4;spacingRight=4;overflow=hidden;rotatable=0;points=[[0,0.5],[1,0.5]];portConstraint=eastwest;whiteSpace=wrap;html=1;" vertex="1" parent="yzFltJAv8uNfXiM1kdK4-0">
          <mxGeometry y="268" width="460" height="26" as="geometry" />
        </mxCell>
        <mxCell id="yzFltJAv8uNfXiM1kdK4-28" value="" style="endArrow=block;endFill=1;html=1;edgeStyle=orthogonalEdgeStyle;align=left;verticalAlign=top;rounded=0;exitX=1;exitY=0.5;exitDx=0;exitDy=0;entryX=1;entryY=0.5;entryDx=0;entryDy=0;" edge="1" parent="yzFltJAv8uNfXiM1kdK4-0" source="yzFltJAv8uNfXiM1kdK4-27" target="yzFltJAv8uNfXiM1kdK4-20">
          <mxGeometry x="-1" relative="1" as="geometry">
            <mxPoint x="380" y="254" as="sourcePoint" />
            <mxPoint x="540" y="254" as="targetPoint" />
          </mxGeometry>
        </mxCell>
        <mxCell id="yzFltJAv8uNfXiM1kdK4-30" value="+ router.get(&quot;/logout&quot;): res.redirect" style="text;strokeColor=none;fillColor=none;align=left;verticalAlign=top;spacingLeft=4;spacingRight=4;overflow=hidden;rotatable=0;points=[[0,0.5],[1,0.5]];portConstraint=eastwest;whiteSpace=wrap;html=1;" vertex="1" parent="yzFltJAv8uNfXiM1kdK4-0">
          <mxGeometry y="294" width="460" height="26" as="geometry" />
        </mxCell>
        <mxCell id="yzFltJAv8uNfXiM1kdK4-31" value="" style="endArrow=block;endFill=1;html=1;edgeStyle=orthogonalEdgeStyle;align=left;verticalAlign=top;rounded=0;exitX=1;exitY=0.5;exitDx=0;exitDy=0;entryX=1;entryY=0.5;entryDx=0;entryDy=0;" edge="1" parent="yzFltJAv8uNfXiM1kdK4-0" source="yzFltJAv8uNfXiM1kdK4-30" target="yzFltJAv8uNfXiM1kdK4-20">
          <mxGeometry x="-1" relative="1" as="geometry">
            <mxPoint x="310" y="334" as="sourcePoint" />
            <mxPoint x="470" y="334" as="targetPoint" />
          </mxGeometry>
        </mxCell>
        <mxCell id="yzFltJAv8uNfXiM1kdK4-34" value="+ router.get(&quot;/account&quot;): res.render" style="text;strokeColor=none;fillColor=none;align=left;verticalAlign=top;spacingLeft=4;spacingRight=4;overflow=hidden;rotatable=0;points=[[0,0.5],[1,0.5]];portConstraint=eastwest;whiteSpace=wrap;html=1;" vertex="1" parent="yzFltJAv8uNfXiM1kdK4-0">
          <mxGeometry y="320" width="460" height="26" as="geometry" />
        </mxCell>
        <mxCell id="yzFltJAv8uNfXiM1kdK4-149" value="+ router.post(&quot;/addaddress&quot;): res.redirect" style="text;strokeColor=none;fillColor=none;align=left;verticalAlign=top;spacingLeft=4;spacingRight=4;overflow=hidden;rotatable=0;points=[[0,0.5],[1,0.5]];portConstraint=eastwest;whiteSpace=wrap;html=1;" vertex="1" parent="yzFltJAv8uNfXiM1kdK4-0">
          <mxGeometry y="346" width="460" height="26" as="geometry" />
        </mxCell>
        <mxCell id="yzFltJAv8uNfXiM1kdK4-184" value="+ router.post(&quot;/deleteaddress/:addressId&quot;): res.redirect" style="text;strokeColor=none;fillColor=none;align=left;verticalAlign=top;spacingLeft=4;spacingRight=4;overflow=hidden;rotatable=0;points=[[0,0.5],[1,0.5]];portConstraint=eastwest;whiteSpace=wrap;html=1;" vertex="1" parent="yzFltJAv8uNfXiM1kdK4-0">
          <mxGeometry y="372" width="460" height="26" as="geometry" />
        </mxCell>
        <mxCell id="yzFltJAv8uNfXiM1kdK4-43" value="+ router.get(&quot;/restaurant/:restaurantId&quot;): res.render" style="text;strokeColor=none;fillColor=none;align=left;verticalAlign=top;spacingLeft=4;spacingRight=4;overflow=hidden;rotatable=0;points=[[0,0.5],[1,0.5]];portConstraint=eastwest;whiteSpace=wrap;html=1;" vertex="1" parent="yzFltJAv8uNfXiM1kdK4-0">
          <mxGeometry y="398" width="460" height="26" as="geometry" />
        </mxCell>
        <mxCell id="yzFltJAv8uNfXiM1kdK4-197" value="+ router.post(&quot;/likerestaurant/:restaurantId&quot;): res.redirect" style="text;strokeColor=none;fillColor=none;align=left;verticalAlign=top;spacingLeft=4;spacingRight=4;overflow=hidden;rotatable=0;points=[[0,0.5],[1,0.5]];portConstraint=eastwest;whiteSpace=wrap;html=1;" vertex="1" parent="yzFltJAv8uNfXiM1kdK4-0">
          <mxGeometry y="424" width="460" height="26" as="geometry" />
        </mxCell>
        <mxCell id="yzFltJAv8uNfXiM1kdK4-151" value="" style="endArrow=block;endFill=1;html=1;edgeStyle=orthogonalEdgeStyle;align=left;verticalAlign=top;rounded=0;exitX=1;exitY=0.5;exitDx=0;exitDy=0;entryX=1;entryY=0.5;entryDx=0;entryDy=0;" edge="1" parent="yzFltJAv8uNfXiM1kdK4-0" source="yzFltJAv8uNfXiM1kdK4-149" target="yzFltJAv8uNfXiM1kdK4-34">
          <mxGeometry x="-1" relative="1" as="geometry">
            <mxPoint x="210" y="444" as="sourcePoint" />
            <mxPoint x="370" y="444" as="targetPoint" />
          </mxGeometry>
        </mxCell>
        <mxCell id="yzFltJAv8uNfXiM1kdK4-205" value="+router.post(&quot;removelike/:restaurantId&quot;): res.redirect" style="text;strokeColor=none;fillColor=none;align=left;verticalAlign=top;spacingLeft=4;spacingRight=4;overflow=hidden;rotatable=0;points=[[0,0.5],[1,0.5]];portConstraint=eastwest;whiteSpace=wrap;html=1;" vertex="1" parent="yzFltJAv8uNfXiM1kdK4-0">
          <mxGeometry y="450" width="460" height="26" as="geometry" />
        </mxCell>
        <mxCell id="yzFltJAv8uNfXiM1kdK4-175" value="+ router.get(&quot;/restaurant/:restaurantId/:foodId&quot;): res.render" style="text;strokeColor=none;fillColor=none;align=left;verticalAlign=top;spacingLeft=4;spacingRight=4;overflow=hidden;rotatable=0;points=[[0,0.5],[1,0.5]];portConstraint=eastwest;whiteSpace=wrap;html=1;" vertex="1" parent="yzFltJAv8uNfXiM1kdK4-0">
          <mxGeometry y="476" width="460" height="26" as="geometry" />
        </mxCell>
        <mxCell id="yzFltJAv8uNfXiM1kdK4-178" value="+ router.get(&quot;/cart&quot;): res.render" style="text;strokeColor=none;fillColor=none;align=left;verticalAlign=top;spacingLeft=4;spacingRight=4;overflow=hidden;rotatable=0;points=[[0,0.5],[1,0.5]];portConstraint=eastwest;whiteSpace=wrap;html=1;" vertex="1" parent="yzFltJAv8uNfXiM1kdK4-0">
          <mxGeometry y="502" width="460" height="26" as="geometry" />
        </mxCell>
        <mxCell id="yzFltJAv8uNfXiM1kdK4-179" value="+ router.post(&quot;/addtocart/:foodId&quot;): res.redirect" style="text;strokeColor=none;fillColor=none;align=left;verticalAlign=top;spacingLeft=4;spacingRight=4;overflow=hidden;rotatable=0;points=[[0,0.5],[1,0.5]];portConstraint=eastwest;whiteSpace=wrap;html=1;" vertex="1" parent="yzFltJAv8uNfXiM1kdK4-0">
          <mxGeometry y="528" width="460" height="26" as="geometry" />
        </mxCell>
        <mxCell id="yzFltJAv8uNfXiM1kdK4-182" value="" style="endArrow=block;endFill=1;html=1;edgeStyle=orthogonalEdgeStyle;align=left;verticalAlign=top;rounded=0;exitX=1;exitY=0.5;exitDx=0;exitDy=0;entryX=1;entryY=0.5;entryDx=0;entryDy=0;" edge="1" parent="yzFltJAv8uNfXiM1kdK4-0" source="yzFltJAv8uNfXiM1kdK4-179" target="yzFltJAv8uNfXiM1kdK4-178">
          <mxGeometry x="-1" relative="1" as="geometry">
            <mxPoint x="560" y="375" as="sourcePoint" />
            <mxPoint x="720" y="375" as="targetPoint" />
          </mxGeometry>
        </mxCell>
        <mxCell id="yzFltJAv8uNfXiM1kdK4-185" value="" style="endArrow=block;endFill=1;html=1;edgeStyle=orthogonalEdgeStyle;align=left;verticalAlign=top;rounded=0;exitX=1;exitY=0.5;exitDx=0;exitDy=0;entryX=1;entryY=0.5;entryDx=0;entryDy=0;" edge="1" parent="yzFltJAv8uNfXiM1kdK4-0" source="yzFltJAv8uNfXiM1kdK4-184" target="yzFltJAv8uNfXiM1kdK4-34">
          <mxGeometry x="-1" relative="1" as="geometry">
            <mxPoint x="580" y="285" as="sourcePoint" />
            <mxPoint x="740" y="285" as="targetPoint" />
          </mxGeometry>
        </mxCell>
        <mxCell id="yzFltJAv8uNfXiM1kdK4-208" value="+ router.post(&quot;/removefromcart/:foodId&quot;): res.redirect" style="text;strokeColor=none;fillColor=none;align=left;verticalAlign=top;spacingLeft=4;spacingRight=4;overflow=hidden;rotatable=0;points=[[0,0.5],[1,0.5]];portConstraint=eastwest;whiteSpace=wrap;html=1;" vertex="1" parent="yzFltJAv8uNfXiM1kdK4-0">
          <mxGeometry y="554" width="460" height="26" as="geometry" />
        </mxCell>
        <mxCell id="yzFltJAv8uNfXiM1kdK4-190" value="+ router.get(&quot;/orders&quot;): res.render" style="text;strokeColor=none;fillColor=none;align=left;verticalAlign=top;spacingLeft=4;spacingRight=4;overflow=hidden;rotatable=0;points=[[0,0.5],[1,0.5]];portConstraint=eastwest;whiteSpace=wrap;html=1;" vertex="1" parent="yzFltJAv8uNfXiM1kdK4-0">
          <mxGeometry y="580" width="460" height="26" as="geometry" />
        </mxCell>
        <mxCell id="yzFltJAv8uNfXiM1kdK4-194" value="+ router.get(&quot;/orders/:orderId&quot;): res.render" style="text;strokeColor=none;fillColor=none;align=left;verticalAlign=top;spacingLeft=4;spacingRight=4;overflow=hidden;rotatable=0;points=[[0,0.5],[1,0.5]];portConstraint=eastwest;whiteSpace=wrap;html=1;" vertex="1" parent="yzFltJAv8uNfXiM1kdK4-0">
          <mxGeometry y="606" width="460" height="26" as="geometry" />
        </mxCell>
        <mxCell id="yzFltJAv8uNfXiM1kdK4-187" value="+ router.post(&quot;/orderfood&quot;): res.redirect" style="text;strokeColor=none;fillColor=none;align=left;verticalAlign=top;spacingLeft=4;spacingRight=4;overflow=hidden;rotatable=0;points=[[0,0.5],[1,0.5]];portConstraint=eastwest;whiteSpace=wrap;html=1;" vertex="1" parent="yzFltJAv8uNfXiM1kdK4-0">
          <mxGeometry y="632" width="460" height="26" as="geometry" />
        </mxCell>
        <mxCell id="yzFltJAv8uNfXiM1kdK4-188" value="" style="endArrow=block;endFill=1;html=1;edgeStyle=orthogonalEdgeStyle;align=left;verticalAlign=top;rounded=0;exitX=1;exitY=0.5;exitDx=0;exitDy=0;entryX=1;entryY=0.5;entryDx=0;entryDy=0;" edge="1" parent="yzFltJAv8uNfXiM1kdK4-0" source="yzFltJAv8uNfXiM1kdK4-187" target="yzFltJAv8uNfXiM1kdK4-194">
          <mxGeometry x="-1" relative="1" as="geometry">
            <mxPoint x="620" y="475" as="sourcePoint" />
            <mxPoint x="710" y="305" as="targetPoint" />
          </mxGeometry>
        </mxCell>
        <mxCell id="yzFltJAv8uNfXiM1kdK4-203" value="" style="endArrow=block;endFill=1;html=1;edgeStyle=orthogonalEdgeStyle;align=left;verticalAlign=top;rounded=0;exitX=1;exitY=0.5;exitDx=0;exitDy=0;entryX=1;entryY=0.5;entryDx=0;entryDy=0;" edge="1" parent="yzFltJAv8uNfXiM1kdK4-0" source="yzFltJAv8uNfXiM1kdK4-197" target="yzFltJAv8uNfXiM1kdK4-43">
          <mxGeometry x="-1" relative="1" as="geometry">
            <mxPoint x="650" y="365" as="sourcePoint" />
            <mxPoint x="810" y="365" as="targetPoint" />
          </mxGeometry>
        </mxCell>
        <mxCell id="yzFltJAv8uNfXiM1kdK4-206" value="" style="endArrow=block;endFill=1;html=1;edgeStyle=orthogonalEdgeStyle;align=left;verticalAlign=top;rounded=0;entryX=1;entryY=0.5;entryDx=0;entryDy=0;exitX=1;exitY=0.5;exitDx=0;exitDy=0;" edge="1" parent="yzFltJAv8uNfXiM1kdK4-0" source="yzFltJAv8uNfXiM1kdK4-205" target="yzFltJAv8uNfXiM1kdK4-43">
          <mxGeometry x="-1" relative="1" as="geometry">
            <mxPoint x="560" y="418.5" as="sourcePoint" />
            <mxPoint x="720" y="418.5" as="targetPoint" />
            <Array as="points">
              <mxPoint x="470" y="463" />
              <mxPoint x="470" y="411" />
            </Array>
          </mxGeometry>
        </mxCell>
        <mxCell id="yzFltJAv8uNfXiM1kdK4-209" value="" style="endArrow=block;endFill=1;html=1;edgeStyle=orthogonalEdgeStyle;align=left;verticalAlign=top;rounded=0;exitX=1;exitY=0.5;exitDx=0;exitDy=0;entryX=1;entryY=0.5;entryDx=0;entryDy=0;" edge="1" parent="yzFltJAv8uNfXiM1kdK4-0" source="yzFltJAv8uNfXiM1kdK4-208" target="yzFltJAv8uNfXiM1kdK4-178">
          <mxGeometry x="-1" relative="1" as="geometry">
            <mxPoint x="-320" y="685" as="sourcePoint" />
            <mxPoint x="-160" y="685" as="targetPoint" />
          </mxGeometry>
        </mxCell>
        <mxCell id="yzFltJAv8uNfXiM1kdK4-214" value="" style="endArrow=block;endFill=1;html=1;edgeStyle=orthogonalEdgeStyle;align=left;verticalAlign=top;rounded=0;exitX=1;exitY=0.5;exitDx=0;exitDy=0;entryX=1;entryY=0.5;entryDx=0;entryDy=0;" edge="1" parent="yzFltJAv8uNfXiM1kdK4-0" source="yzFltJAv8uNfXiM1kdK4-205" target="yzFltJAv8uNfXiM1kdK4-43">
          <mxGeometry x="-1" relative="1" as="geometry">
            <mxPoint x="630" y="395" as="sourcePoint" />
            <mxPoint x="790" y="395" as="targetPoint" />
          </mxGeometry>
        </mxCell>
        <mxCell id="yzFltJAv8uNfXiM1kdK4-4" value="" style="endArrow=block;endFill=1;html=1;edgeStyle=orthogonalEdgeStyle;align=left;verticalAlign=top;rounded=0;exitX=1;exitY=0.25;exitDx=0;exitDy=0;entryX=0;entryY=0.5;entryDx=0;entryDy=0;" edge="1" parent="WIyWlLk6GJQsqaUBKTNV-1" source="yzFltJAv8uNfXiM1kdK4-0" target="09qiv7vU6BCCD43riBRa-13">
          <mxGeometry x="-1" relative="1" as="geometry">
            <mxPoint x="870" y="240" as="sourcePoint" />
            <mxPoint x="890" y="480" as="targetPoint" />
            <Array as="points">
              <mxPoint x="540" y="480" />
              <mxPoint x="1150" y="480" />
              <mxPoint x="1150" y="187" />
            </Array>
          </mxGeometry>
        </mxCell>
        <mxCell id="yzFltJAv8uNfXiM1kdK4-6" value="" style="endArrow=block;endFill=1;html=1;edgeStyle=orthogonalEdgeStyle;align=left;verticalAlign=top;rounded=0;entryX=0;entryY=0.25;entryDx=0;entryDy=0;exitX=0.622;exitY=-0.002;exitDx=0;exitDy=0;exitPerimeter=0;" edge="1" parent="WIyWlLk6GJQsqaUBKTNV-1" source="aCCsGAOV-Q1LSLL2z9md-17" target="09qiv7vU6BCCD43riBRa-4">
          <mxGeometry x="-1" relative="1" as="geometry">
            <mxPoint x="440" y="190" as="sourcePoint" />
            <mxPoint x="600" y="190" as="targetPoint" />
          </mxGeometry>
        </mxCell>
        <mxCell id="yzFltJAv8uNfXiM1kdK4-13" value="register.ejs" style="html=1;whiteSpace=wrap;" vertex="1" parent="WIyWlLk6GJQsqaUBKTNV-1">
          <mxGeometry x="-280" y="542" width="80" height="28" as="geometry" />
        </mxCell>
        <mxCell id="yzFltJAv8uNfXiM1kdK4-17" value="login.ejs" style="html=1;whiteSpace=wrap;" vertex="1" parent="WIyWlLk6GJQsqaUBKTNV-1">
          <mxGeometry x="-280" y="598" width="80" height="28" as="geometry" />
        </mxCell>
        <mxCell id="yzFltJAv8uNfXiM1kdK4-21" value="index.ejs" style="html=1;whiteSpace=wrap;" vertex="1" parent="WIyWlLk6GJQsqaUBKTNV-1">
          <mxGeometry x="-280" y="649" width="80" height="28" as="geometry" />
        </mxCell>
        <mxCell id="yzFltJAv8uNfXiM1kdK4-35" value="account.ejs" style="html=1;whiteSpace=wrap;" vertex="1" parent="WIyWlLk6GJQsqaUBKTNV-1">
          <mxGeometry x="-280" y="701" width="80" height="28" as="geometry" />
        </mxCell>
        <mxCell id="yzFltJAv8uNfXiM1kdK4-38" value="" style="endArrow=block;endFill=1;html=1;edgeStyle=orthogonalEdgeStyle;align=left;verticalAlign=top;rounded=0;entryX=0;entryY=0.5;entryDx=0;entryDy=0;" edge="1" parent="WIyWlLk6GJQsqaUBKTNV-1" target="09qiv7vU6BCCD43riBRa-73">
          <mxGeometry x="-1" relative="1" as="geometry">
            <mxPoint x="540" y="480" as="sourcePoint" />
            <mxPoint x="1050" y="540" as="targetPoint" />
            <Array as="points">
              <mxPoint x="1150" y="480" />
              <mxPoint x="1150" y="427" />
            </Array>
          </mxGeometry>
        </mxCell>
        <mxCell id="yzFltJAv8uNfXiM1kdK4-41" value="" style="endArrow=block;endFill=1;html=1;edgeStyle=orthogonalEdgeStyle;align=left;verticalAlign=top;rounded=0;entryX=0;entryY=0.5;entryDx=0;entryDy=0;" edge="1" parent="WIyWlLk6GJQsqaUBKTNV-1" target="09qiv7vU6BCCD43riBRa-88">
          <mxGeometry x="-1" relative="1" as="geometry">
            <mxPoint x="540" y="480" as="sourcePoint" />
            <mxPoint x="1110" y="600" as="targetPoint" />
            <Array as="points">
              <mxPoint x="1150" y="480" />
              <mxPoint x="1150" y="589" />
            </Array>
          </mxGeometry>
        </mxCell>
        <mxCell id="yzFltJAv8uNfXiM1kdK4-146" value="restaurant.ejs" style="html=1;whiteSpace=wrap;" vertex="1" parent="WIyWlLk6GJQsqaUBKTNV-1">
          <mxGeometry x="-280" y="771" width="80" height="28" as="geometry" />
        </mxCell>
        <mxCell id="yzFltJAv8uNfXiM1kdK4-153" value="" style="endArrow=block;endFill=1;html=1;edgeStyle=orthogonalEdgeStyle;align=left;verticalAlign=top;rounded=0;entryX=0;entryY=0.5;entryDx=0;entryDy=0;" edge="1" parent="WIyWlLk6GJQsqaUBKTNV-1" target="09qiv7vU6BCCD43riBRa-108">
          <mxGeometry x="-1" relative="1" as="geometry">
            <mxPoint x="540" y="480" as="sourcePoint" />
            <mxPoint x="1040" y="700" as="targetPoint" />
            <Array as="points">
              <mxPoint x="1150" y="480" />
              <mxPoint x="1150" y="717" />
            </Array>
          </mxGeometry>
        </mxCell>
        <mxCell id="yzFltJAv8uNfXiM1kdK4-155" value="route-restaurants" style="swimlane;fontStyle=1;align=center;verticalAlign=top;childLayout=stackLayout;horizontal=1;startSize=26;horizontalStack=0;resizeParent=1;resizeParentMax=0;resizeLast=0;collapsible=1;marginBottom=0;whiteSpace=wrap;html=1;" vertex="1" parent="WIyWlLk6GJQsqaUBKTNV-1">
          <mxGeometry x="80" y="1083" width="460" height="346" as="geometry" />
        </mxCell>
        <mxCell id="yzFltJAv8uNfXiM1kdK4-156" value="+ userDao: user-dao" style="text;strokeColor=none;fillColor=none;align=left;verticalAlign=top;spacingLeft=4;spacingRight=4;overflow=hidden;rotatable=0;points=[[0,0.5],[1,0.5]];portConstraint=eastwest;whiteSpace=wrap;html=1;" vertex="1" parent="yzFltJAv8uNfXiM1kdK4-155">
          <mxGeometry y="26" width="460" height="26" as="geometry" />
        </mxCell>
        <mxCell id="yzFltJAv8uNfXiM1kdK4-229" value="+ directionsService: directions-service" style="text;strokeColor=none;fillColor=none;align=left;verticalAlign=top;spacingLeft=4;spacingRight=4;overflow=hidden;rotatable=0;points=[[0,0.5],[1,0.5]];portConstraint=eastwest;whiteSpace=wrap;html=1;" vertex="1" parent="yzFltJAv8uNfXiM1kdK4-155">
          <mxGeometry y="52" width="460" height="26" as="geometry" />
        </mxCell>
        <mxCell id="yzFltJAv8uNfXiM1kdK4-232" value="+ emailManager: email-manager" style="text;strokeColor=none;fillColor=none;align=left;verticalAlign=top;spacingLeft=4;spacingRight=4;overflow=hidden;rotatable=0;points=[[0,0.5],[1,0.5]];portConstraint=eastwest;whiteSpace=wrap;html=1;" vertex="1" parent="yzFltJAv8uNfXiM1kdK4-155">
          <mxGeometry y="78" width="460" height="26" as="geometry" />
        </mxCell>
        <mxCell id="yzFltJAv8uNfXiM1kdK4-231" value="+ jwtSecret: userAuth" style="text;strokeColor=none;fillColor=none;align=left;verticalAlign=top;spacingLeft=4;spacingRight=4;overflow=hidden;rotatable=0;points=[[0,0.5],[1,0.5]];portConstraint=eastwest;whiteSpace=wrap;html=1;" vertex="1" parent="yzFltJAv8uNfXiM1kdK4-155">
          <mxGeometry y="104" width="460" height="26" as="geometry" />
        </mxCell>
        <mxCell id="yzFltJAv8uNfXiM1kdK4-230" value="+ router: express.Router()" style="text;strokeColor=none;fillColor=none;align=left;verticalAlign=top;spacingLeft=4;spacingRight=4;overflow=hidden;rotatable=0;points=[[0,0.5],[1,0.5]];portConstraint=eastwest;whiteSpace=wrap;html=1;" vertex="1" parent="yzFltJAv8uNfXiM1kdK4-155">
          <mxGeometry y="130" width="460" height="26" as="geometry" />
        </mxCell>
        <mxCell id="yzFltJAv8uNfXiM1kdK4-157" value="" style="line;strokeWidth=1;fillColor=none;align=left;verticalAlign=middle;spacingTop=-1;spacingLeft=3;spacingRight=3;rotatable=0;labelPosition=right;points=[];portConstraint=eastwest;strokeColor=inherit;" vertex="1" parent="yzFltJAv8uNfXiM1kdK4-155">
          <mxGeometry y="156" width="460" height="8" as="geometry" />
        </mxCell>
        <mxCell id="yzFltJAv8uNfXiM1kdK4-158" value="+ router.get(&quot;/myrestaurant&quot;): res.render" style="text;strokeColor=none;fillColor=none;align=left;verticalAlign=top;spacingLeft=4;spacingRight=4;overflow=hidden;rotatable=0;points=[[0,0.5],[1,0.5]];portConstraint=eastwest;whiteSpace=wrap;html=1;" vertex="1" parent="yzFltJAv8uNfXiM1kdK4-155">
          <mxGeometry y="164" width="460" height="26" as="geometry" />
        </mxCell>
        <mxCell id="yzFltJAv8uNfXiM1kdK4-237" value="+ router.post(&quot;/addfood&quot;): res.redirect" style="text;strokeColor=none;fillColor=none;align=left;verticalAlign=top;spacingLeft=4;spacingRight=4;overflow=hidden;rotatable=0;points=[[0,0.5],[1,0.5]];portConstraint=eastwest;whiteSpace=wrap;html=1;" vertex="1" parent="yzFltJAv8uNfXiM1kdK4-155">
          <mxGeometry y="190" width="460" height="26" as="geometry" />
        </mxCell>
        <mxCell id="yzFltJAv8uNfXiM1kdK4-239" value="+ router.post(&quot;/updatefood/:foodId&quot;): res.redirect" style="text;strokeColor=none;fillColor=none;align=left;verticalAlign=top;spacingLeft=4;spacingRight=4;overflow=hidden;rotatable=0;points=[[0,0.5],[1,0.5]];portConstraint=eastwest;whiteSpace=wrap;html=1;" vertex="1" parent="yzFltJAv8uNfXiM1kdK4-155">
          <mxGeometry y="216" width="460" height="26" as="geometry" />
        </mxCell>
        <mxCell id="yzFltJAv8uNfXiM1kdK4-240" value="+ router.post(&quot;/deletefood/:foodId&quot;): res.redirect" style="text;strokeColor=none;fillColor=none;align=left;verticalAlign=top;spacingLeft=4;spacingRight=4;overflow=hidden;rotatable=0;points=[[0,0.5],[1,0.5]];portConstraint=eastwest;whiteSpace=wrap;html=1;" vertex="1" parent="yzFltJAv8uNfXiM1kdK4-155">
          <mxGeometry y="242" width="460" height="26" as="geometry" />
        </mxCell>
        <mxCell id="yzFltJAv8uNfXiM1kdK4-241" value="" style="endArrow=block;endFill=1;html=1;edgeStyle=orthogonalEdgeStyle;align=left;verticalAlign=top;rounded=0;exitX=1;exitY=0.5;exitDx=0;exitDy=0;entryX=1;entryY=0.5;entryDx=0;entryDy=0;" edge="1" parent="yzFltJAv8uNfXiM1kdK4-155" source="yzFltJAv8uNfXiM1kdK4-237" target="yzFltJAv8uNfXiM1kdK4-158">
          <mxGeometry x="-1" relative="1" as="geometry">
            <mxPoint x="540" y="227" as="sourcePoint" />
            <mxPoint x="700" y="227" as="targetPoint" />
          </mxGeometry>
        </mxCell>
        <mxCell id="yzFltJAv8uNfXiM1kdK4-243" value="" style="endArrow=block;endFill=1;html=1;edgeStyle=orthogonalEdgeStyle;align=left;verticalAlign=top;rounded=0;exitX=1;exitY=0.5;exitDx=0;exitDy=0;entryX=1;entryY=0.5;entryDx=0;entryDy=0;" edge="1" parent="yzFltJAv8uNfXiM1kdK4-155" source="yzFltJAv8uNfXiM1kdK4-239" target="yzFltJAv8uNfXiM1kdK4-158">
          <mxGeometry x="-1" relative="1" as="geometry">
            <mxPoint x="550" y="207" as="sourcePoint" />
            <mxPoint x="710" y="207" as="targetPoint" />
          </mxGeometry>
        </mxCell>
        <mxCell id="yzFltJAv8uNfXiM1kdK4-245" value="" style="endArrow=block;endFill=1;html=1;edgeStyle=orthogonalEdgeStyle;align=left;verticalAlign=top;rounded=0;exitX=1;exitY=0.5;exitDx=0;exitDy=0;entryX=1;entryY=0.5;entryDx=0;entryDy=0;" edge="1" parent="yzFltJAv8uNfXiM1kdK4-155" source="yzFltJAv8uNfXiM1kdK4-240" target="yzFltJAv8uNfXiM1kdK4-158">
          <mxGeometry x="-1" relative="1" as="geometry">
            <mxPoint x="570" y="237" as="sourcePoint" />
            <mxPoint x="730" y="237" as="targetPoint" />
          </mxGeometry>
        </mxCell>
        <mxCell id="ufnvrDgtjil-0yNEq-go-5" value="+ router.post(&quot;/changeopening&quot;): res.redirect" style="text;strokeColor=none;fillColor=none;align=left;verticalAlign=top;spacingLeft=4;spacingRight=4;overflow=hidden;rotatable=0;points=[[0,0.5],[1,0.5]];portConstraint=eastwest;whiteSpace=wrap;html=1;" vertex="1" parent="yzFltJAv8uNfXiM1kdK4-155">
          <mxGeometry y="268" width="460" height="26" as="geometry" />
        </mxCell>
        <mxCell id="Uxo_YBoUhl6oN6G-tg7K-5" value="+ router.get(&quot;/myorders&quot;): res.render" style="text;strokeColor=none;fillColor=none;align=left;verticalAlign=top;spacingLeft=4;spacingRight=4;overflow=hidden;rotatable=0;points=[[0,0.5],[1,0.5]];portConstraint=eastwest;whiteSpace=wrap;html=1;" vertex="1" parent="yzFltJAv8uNfXiM1kdK4-155">
          <mxGeometry y="294" width="460" height="26" as="geometry" />
        </mxCell>
        <mxCell id="ufnvrDgtjil-0yNEq-go-0" value="+ router.post(&quot;/changeorder&quot;): res.redirect" style="text;strokeColor=none;fillColor=none;align=left;verticalAlign=top;spacingLeft=4;spacingRight=4;overflow=hidden;rotatable=0;points=[[0,0.5],[1,0.5]];portConstraint=eastwest;whiteSpace=wrap;html=1;" vertex="1" parent="yzFltJAv8uNfXiM1kdK4-155">
          <mxGeometry y="320" width="460" height="26" as="geometry" />
        </mxCell>
        <mxCell id="ufnvrDgtjil-0yNEq-go-3" value="" style="endArrow=block;endFill=1;html=1;edgeStyle=orthogonalEdgeStyle;align=left;verticalAlign=top;rounded=0;exitX=1;exitY=0.5;exitDx=0;exitDy=0;entryX=1;entryY=0.5;entryDx=0;entryDy=0;" edge="1" parent="yzFltJAv8uNfXiM1kdK4-155" source="ufnvrDgtjil-0yNEq-go-0" target="Uxo_YBoUhl6oN6G-tg7K-5">
          <mxGeometry x="-1" relative="1" as="geometry">
            <mxPoint x="530" y="357" as="sourcePoint" />
            <mxPoint x="690" y="357" as="targetPoint" />
          </mxGeometry>
        </mxCell>
        <mxCell id="ufnvrDgtjil-0yNEq-go-6" value="" style="endArrow=block;endFill=1;html=1;edgeStyle=orthogonalEdgeStyle;align=left;verticalAlign=top;rounded=0;exitX=1;exitY=0.5;exitDx=0;exitDy=0;entryX=1;entryY=0.5;entryDx=0;entryDy=0;" edge="1" parent="yzFltJAv8uNfXiM1kdK4-155" source="ufnvrDgtjil-0yNEq-go-5" target="yzFltJAv8uNfXiM1kdK4-158">
          <mxGeometry x="-1" relative="1" as="geometry">
            <mxPoint x="210" y="417" as="sourcePoint" />
            <mxPoint x="370" y="417" as="targetPoint" />
          </mxGeometry>
        </mxCell>
        <mxCell id="yzFltJAv8uNfXiM1kdK4-159" value="route-couriers" style="swimlane;fontStyle=1;align=center;verticalAlign=top;childLayout=stackLayout;horizontal=1;startSize=26;horizontalStack=0;resizeParent=1;resizeParentMax=0;resizeLast=0;collapsible=1;marginBottom=0;whiteSpace=wrap;html=1;" vertex="1" parent="WIyWlLk6GJQsqaUBKTNV-1">
          <mxGeometry x="80" y="1450" width="460" height="242" as="geometry" />
        </mxCell>
        <mxCell id="dUTbbWYeFywXm29RSsG3-0" value="+ userDao: user-dao" style="text;strokeColor=none;fillColor=none;align=left;verticalAlign=top;spacingLeft=4;spacingRight=4;overflow=hidden;rotatable=0;points=[[0,0.5],[1,0.5]];portConstraint=eastwest;whiteSpace=wrap;html=1;" vertex="1" parent="yzFltJAv8uNfXiM1kdK4-159">
          <mxGeometry y="26" width="460" height="26" as="geometry" />
        </mxCell>
        <mxCell id="dUTbbWYeFywXm29RSsG3-4" value="+ router: express.Router()" style="text;strokeColor=none;fillColor=none;align=left;verticalAlign=top;spacingLeft=4;spacingRight=4;overflow=hidden;rotatable=0;points=[[0,0.5],[1,0.5]];portConstraint=eastwest;whiteSpace=wrap;html=1;" vertex="1" parent="yzFltJAv8uNfXiM1kdK4-159">
          <mxGeometry y="52" width="460" height="26" as="geometry" />
        </mxCell>
        <mxCell id="dUTbbWYeFywXm29RSsG3-3" value="+ jwtSecret: userAuth" style="text;strokeColor=none;fillColor=none;align=left;verticalAlign=top;spacingLeft=4;spacingRight=4;overflow=hidden;rotatable=0;points=[[0,0.5],[1,0.5]];portConstraint=eastwest;whiteSpace=wrap;html=1;" vertex="1" parent="yzFltJAv8uNfXiM1kdK4-159">
          <mxGeometry y="78" width="460" height="26" as="geometry" />
        </mxCell>
        <mxCell id="dUTbbWYeFywXm29RSsG3-2" value="+ emailManager: email-manager" style="text;strokeColor=none;fillColor=none;align=left;verticalAlign=top;spacingLeft=4;spacingRight=4;overflow=hidden;rotatable=0;points=[[0,0.5],[1,0.5]];portConstraint=eastwest;whiteSpace=wrap;html=1;" vertex="1" parent="yzFltJAv8uNfXiM1kdK4-159">
          <mxGeometry y="104" width="460" height="26" as="geometry" />
        </mxCell>
        <mxCell id="dUTbbWYeFywXm29RSsG3-1" value="+ directionsService: directions-service" style="text;strokeColor=none;fillColor=none;align=left;verticalAlign=top;spacingLeft=4;spacingRight=4;overflow=hidden;rotatable=0;points=[[0,0.5],[1,0.5]];portConstraint=eastwest;whiteSpace=wrap;html=1;" vertex="1" parent="yzFltJAv8uNfXiM1kdK4-159">
          <mxGeometry y="130" width="460" height="26" as="geometry" />
        </mxCell>
        <mxCell id="yzFltJAv8uNfXiM1kdK4-161" value="" style="line;strokeWidth=1;fillColor=none;align=left;verticalAlign=middle;spacingTop=-1;spacingLeft=3;spacingRight=3;rotatable=0;labelPosition=right;points=[];portConstraint=eastwest;strokeColor=inherit;" vertex="1" parent="yzFltJAv8uNfXiM1kdK4-159">
          <mxGeometry y="156" width="460" height="8" as="geometry" />
        </mxCell>
        <mxCell id="yzFltJAv8uNfXiM1kdK4-162" value="+ router.get(&quot;/availableorders&quot;): res.render" style="text;strokeColor=none;fillColor=none;align=left;verticalAlign=top;spacingLeft=4;spacingRight=4;overflow=hidden;rotatable=0;points=[[0,0.5],[1,0.5]];portConstraint=eastwest;whiteSpace=wrap;html=1;" vertex="1" parent="yzFltJAv8uNfXiM1kdK4-159">
          <mxGeometry y="164" width="460" height="26" as="geometry" />
        </mxCell>
        <mxCell id="dUTbbWYeFywXm29RSsG3-20" value="+ router.post(&quot;/orders/:orderId/complete&quot;): res.redirect" style="text;strokeColor=none;fillColor=none;align=left;verticalAlign=top;spacingLeft=4;spacingRight=4;overflow=hidden;rotatable=0;points=[[0,0.5],[1,0.5]];portConstraint=eastwest;whiteSpace=wrap;html=1;" vertex="1" parent="yzFltJAv8uNfXiM1kdK4-159">
          <mxGeometry y="190" width="460" height="26" as="geometry" />
        </mxCell>
        <mxCell id="dUTbbWYeFywXm29RSsG3-16" value="+ router.post(&quot;acceptorder/:orderId&quot;): res.redirect" style="text;strokeColor=none;fillColor=none;align=left;verticalAlign=top;spacingLeft=4;spacingRight=4;overflow=hidden;rotatable=0;points=[[0,0.5],[1,0.5]];portConstraint=eastwest;whiteSpace=wrap;html=1;" vertex="1" parent="yzFltJAv8uNfXiM1kdK4-159">
          <mxGeometry y="216" width="460" height="26" as="geometry" />
        </mxCell>
        <mxCell id="dUTbbWYeFywXm29RSsG3-26" value="" style="endArrow=block;endFill=1;html=1;edgeStyle=orthogonalEdgeStyle;align=left;verticalAlign=top;rounded=0;exitX=1;exitY=0.5;exitDx=0;exitDy=0;entryX=1;entryY=0.5;entryDx=0;entryDy=0;" edge="1" parent="yzFltJAv8uNfXiM1kdK4-159" source="dUTbbWYeFywXm29RSsG3-20" target="yzFltJAv8uNfXiM1kdK4-162">
          <mxGeometry x="-1" relative="1" as="geometry">
            <mxPoint x="120" y="280" as="sourcePoint" />
            <mxPoint x="280" y="280" as="targetPoint" />
          </mxGeometry>
        </mxCell>
        <mxCell id="yzFltJAv8uNfXiM1kdK4-163" value="" style="endArrow=block;endFill=1;html=1;edgeStyle=orthogonalEdgeStyle;align=left;verticalAlign=top;rounded=0;entryX=0;entryY=0.5;entryDx=0;entryDy=0;" edge="1" parent="WIyWlLk6GJQsqaUBKTNV-1" target="aCCsGAOV-Q1LSLL2z9md-14">
          <mxGeometry x="-1" relative="1" as="geometry">
            <mxPoint x="540" y="480" as="sourcePoint" />
            <mxPoint x="1070" y="890" as="targetPoint" />
            <Array as="points">
              <mxPoint x="1150" y="480" />
              <mxPoint x="1150" y="955" />
            </Array>
          </mxGeometry>
        </mxCell>
        <mxCell id="yzFltJAv8uNfXiM1kdK4-165" value="" style="endArrow=block;endFill=1;html=1;edgeStyle=orthogonalEdgeStyle;align=left;verticalAlign=top;rounded=0;entryX=0;entryY=0.5;entryDx=0;entryDy=0;" edge="1" parent="WIyWlLk6GJQsqaUBKTNV-1" target="aCCsGAOV-Q1LSLL2z9md-126">
          <mxGeometry x="-1" relative="1" as="geometry">
            <mxPoint x="540" y="480" as="sourcePoint" />
            <mxPoint x="1120" y="1300" as="targetPoint" />
            <Array as="points">
              <mxPoint x="1150" y="480" />
              <mxPoint x="1150" y="1347" />
            </Array>
          </mxGeometry>
        </mxCell>
        <mxCell id="yzFltJAv8uNfXiM1kdK4-167" value="" style="endArrow=block;endFill=1;html=1;edgeStyle=orthogonalEdgeStyle;align=left;verticalAlign=top;rounded=0;entryX=0;entryY=0.5;entryDx=0;entryDy=0;" edge="1" parent="WIyWlLk6GJQsqaUBKTNV-1" target="aCCsGAOV-Q1LSLL2z9md-33">
          <mxGeometry x="-1" relative="1" as="geometry">
            <mxPoint x="540" y="480" as="sourcePoint" />
            <mxPoint x="1130" y="1400" as="targetPoint" />
            <Array as="points">
              <mxPoint x="1150" y="480" />
              <mxPoint x="1150" y="1477" />
            </Array>
          </mxGeometry>
        </mxCell>
        <mxCell id="yzFltJAv8uNfXiM1kdK4-170" value="" style="endArrow=block;endFill=1;html=1;edgeStyle=orthogonalEdgeStyle;align=left;verticalAlign=top;rounded=0;entryX=0;entryY=0.5;entryDx=0;entryDy=0;" edge="1" parent="WIyWlLk6GJQsqaUBKTNV-1" target="aCCsGAOV-Q1LSLL2z9md-49">
          <mxGeometry x="-1" relative="1" as="geometry">
            <mxPoint x="540" y="480" as="sourcePoint" />
            <mxPoint x="970" y="1570" as="targetPoint" />
            <Array as="points">
              <mxPoint x="1150" y="480" />
              <mxPoint x="1150" y="1663" />
            </Array>
          </mxGeometry>
        </mxCell>
        <mxCell id="yzFltJAv8uNfXiM1kdK4-172" value="" style="endArrow=block;endFill=1;html=1;edgeStyle=orthogonalEdgeStyle;align=left;verticalAlign=top;rounded=0;entryX=0;entryY=0.5;entryDx=0;entryDy=0;" edge="1" parent="WIyWlLk6GJQsqaUBKTNV-1" target="aCCsGAOV-Q1LSLL2z9md-110">
          <mxGeometry x="-1" relative="1" as="geometry">
            <mxPoint x="540" y="480" as="sourcePoint" />
            <mxPoint x="1150" y="1750" as="targetPoint" />
            <Array as="points">
              <mxPoint x="1150" y="480" />
              <mxPoint x="1150" y="1827" />
            </Array>
          </mxGeometry>
        </mxCell>
        <mxCell id="yzFltJAv8uNfXiM1kdK4-176" value="food.ejs" style="html=1;whiteSpace=wrap;" vertex="1" parent="WIyWlLk6GJQsqaUBKTNV-1">
          <mxGeometry x="-280" y="832" width="80" height="28" as="geometry" />
        </mxCell>
        <mxCell id="yzFltJAv8uNfXiM1kdK4-180" value="cart.ejs" style="html=1;whiteSpace=wrap;" vertex="1" parent="WIyWlLk6GJQsqaUBKTNV-1">
          <mxGeometry x="-280" y="901" width="80" height="28" as="geometry" />
        </mxCell>
        <mxCell id="yzFltJAv8uNfXiM1kdK4-192" value="orders.ejs" style="html=1;whiteSpace=wrap;" vertex="1" parent="WIyWlLk6GJQsqaUBKTNV-1">
          <mxGeometry x="-280" y="961" width="80" height="28" as="geometry" />
        </mxCell>
        <mxCell id="yzFltJAv8uNfXiM1kdK4-195" value="order.ejs" style="html=1;whiteSpace=wrap;" vertex="1" parent="WIyWlLk6GJQsqaUBKTNV-1">
          <mxGeometry x="-280" y="1021" width="80" height="28" as="geometry" />
        </mxCell>
        <mxCell id="yzFltJAv8uNfXiM1kdK4-220" style="edgeStyle=orthogonalEdgeStyle;rounded=0;orthogonalLoop=1;jettySize=auto;html=1;entryX=1;entryY=0.5;entryDx=0;entryDy=0;" edge="1" parent="WIyWlLk6GJQsqaUBKTNV-1" source="yzFltJAv8uNfXiM1kdK4-3" target="yzFltJAv8uNfXiM1kdK4-13">
          <mxGeometry relative="1" as="geometry" />
        </mxCell>
        <mxCell id="yzFltJAv8uNfXiM1kdK4-221" style="edgeStyle=orthogonalEdgeStyle;rounded=0;orthogonalLoop=1;jettySize=auto;html=1;entryX=1;entryY=0.5;entryDx=0;entryDy=0;" edge="1" parent="WIyWlLk6GJQsqaUBKTNV-1" source="yzFltJAv8uNfXiM1kdK4-11" target="yzFltJAv8uNfXiM1kdK4-17">
          <mxGeometry relative="1" as="geometry" />
        </mxCell>
        <mxCell id="yzFltJAv8uNfXiM1kdK4-222" style="edgeStyle=orthogonalEdgeStyle;rounded=0;orthogonalLoop=1;jettySize=auto;html=1;entryX=1;entryY=0.5;entryDx=0;entryDy=0;" edge="1" parent="WIyWlLk6GJQsqaUBKTNV-1" source="yzFltJAv8uNfXiM1kdK4-20" target="yzFltJAv8uNfXiM1kdK4-21">
          <mxGeometry relative="1" as="geometry" />
        </mxCell>
        <mxCell id="yzFltJAv8uNfXiM1kdK4-223" style="edgeStyle=orthogonalEdgeStyle;rounded=0;orthogonalLoop=1;jettySize=auto;html=1;entryX=1;entryY=0.5;entryDx=0;entryDy=0;" edge="1" parent="WIyWlLk6GJQsqaUBKTNV-1" source="yzFltJAv8uNfXiM1kdK4-34" target="yzFltJAv8uNfXiM1kdK4-35">
          <mxGeometry relative="1" as="geometry" />
        </mxCell>
        <mxCell id="yzFltJAv8uNfXiM1kdK4-224" style="edgeStyle=orthogonalEdgeStyle;rounded=0;orthogonalLoop=1;jettySize=auto;html=1;entryX=1;entryY=0.5;entryDx=0;entryDy=0;" edge="1" parent="WIyWlLk6GJQsqaUBKTNV-1" source="yzFltJAv8uNfXiM1kdK4-43" target="yzFltJAv8uNfXiM1kdK4-146">
          <mxGeometry relative="1" as="geometry" />
        </mxCell>
        <mxCell id="yzFltJAv8uNfXiM1kdK4-225" style="edgeStyle=orthogonalEdgeStyle;rounded=0;orthogonalLoop=1;jettySize=auto;html=1;entryX=1;entryY=0.5;entryDx=0;entryDy=0;" edge="1" parent="WIyWlLk6GJQsqaUBKTNV-1" source="yzFltJAv8uNfXiM1kdK4-175" target="yzFltJAv8uNfXiM1kdK4-176">
          <mxGeometry relative="1" as="geometry" />
        </mxCell>
        <mxCell id="yzFltJAv8uNfXiM1kdK4-226" style="edgeStyle=orthogonalEdgeStyle;rounded=0;orthogonalLoop=1;jettySize=auto;html=1;entryX=1;entryY=0.5;entryDx=0;entryDy=0;" edge="1" parent="WIyWlLk6GJQsqaUBKTNV-1" source="yzFltJAv8uNfXiM1kdK4-178" target="yzFltJAv8uNfXiM1kdK4-180">
          <mxGeometry relative="1" as="geometry" />
        </mxCell>
        <mxCell id="yzFltJAv8uNfXiM1kdK4-227" style="edgeStyle=orthogonalEdgeStyle;rounded=0;orthogonalLoop=1;jettySize=auto;html=1;entryX=1;entryY=0.5;entryDx=0;entryDy=0;" edge="1" parent="WIyWlLk6GJQsqaUBKTNV-1" source="yzFltJAv8uNfXiM1kdK4-190" target="yzFltJAv8uNfXiM1kdK4-192">
          <mxGeometry relative="1" as="geometry" />
        </mxCell>
        <mxCell id="yzFltJAv8uNfXiM1kdK4-228" style="edgeStyle=orthogonalEdgeStyle;rounded=0;orthogonalLoop=1;jettySize=auto;html=1;entryX=1;entryY=0.5;entryDx=0;entryDy=0;" edge="1" parent="WIyWlLk6GJQsqaUBKTNV-1" source="yzFltJAv8uNfXiM1kdK4-194" target="yzFltJAv8uNfXiM1kdK4-195">
          <mxGeometry relative="1" as="geometry" />
        </mxCell>
        <mxCell id="yzFltJAv8uNfXiM1kdK4-234" value="myrestaurant.ejs" style="html=1;whiteSpace=wrap;" vertex="1" parent="WIyWlLk6GJQsqaUBKTNV-1">
          <mxGeometry x="-280" y="1240" width="100" height="28" as="geometry" />
        </mxCell>
        <mxCell id="yzFltJAv8uNfXiM1kdK4-236" style="edgeStyle=orthogonalEdgeStyle;rounded=0;orthogonalLoop=1;jettySize=auto;html=1;entryX=1;entryY=0.5;entryDx=0;entryDy=0;" edge="1" parent="WIyWlLk6GJQsqaUBKTNV-1" source="yzFltJAv8uNfXiM1kdK4-158" target="yzFltJAv8uNfXiM1kdK4-234">
          <mxGeometry relative="1" as="geometry" />
        </mxCell>
        <mxCell id="Uxo_YBoUhl6oN6G-tg7K-1" style="edgeStyle=orthogonalEdgeStyle;rounded=0;orthogonalLoop=1;jettySize=auto;html=1;entryX=0;entryY=0.5;entryDx=0;entryDy=0;" edge="1" parent="WIyWlLk6GJQsqaUBKTNV-1">
          <mxGeometry relative="1" as="geometry">
            <mxPoint x="550" y="1122" as="sourcePoint" />
            <mxPoint x="1251" y="1007" as="targetPoint" />
            <Array as="points">
              <mxPoint x="1070" y="1122" />
              <mxPoint x="1070" y="1007" />
            </Array>
          </mxGeometry>
        </mxCell>
        <mxCell id="Uxo_YBoUhl6oN6G-tg7K-2" style="edgeStyle=orthogonalEdgeStyle;rounded=0;orthogonalLoop=1;jettySize=auto;html=1;entryX=0;entryY=0.5;entryDx=0;entryDy=0;" edge="1" parent="WIyWlLk6GJQsqaUBKTNV-1" source="yzFltJAv8uNfXiM1kdK4-156" target="09qiv7vU6BCCD43riBRa-109">
          <mxGeometry relative="1" as="geometry">
            <Array as="points">
              <mxPoint x="1070" y="1122" />
              <mxPoint x="1070" y="743" />
            </Array>
          </mxGeometry>
        </mxCell>
        <mxCell id="Uxo_YBoUhl6oN6G-tg7K-3" style="edgeStyle=orthogonalEdgeStyle;rounded=0;orthogonalLoop=1;jettySize=auto;html=1;entryX=0;entryY=0.5;entryDx=0;entryDy=0;" edge="1" parent="WIyWlLk6GJQsqaUBKTNV-1" source="yzFltJAv8uNfXiM1kdK4-156" target="09qiv7vU6BCCD43riBRa-90">
          <mxGeometry relative="1" as="geometry">
            <mxPoint x="1040" y="570" as="targetPoint" />
            <Array as="points">
              <mxPoint x="1070" y="1122" />
              <mxPoint x="1070" y="453" />
            </Array>
          </mxGeometry>
        </mxCell>
        <mxCell id="Uxo_YBoUhl6oN6G-tg7K-4" style="edgeStyle=orthogonalEdgeStyle;rounded=0;orthogonalLoop=1;jettySize=auto;html=1;entryX=0;entryY=0.5;entryDx=0;entryDy=0;" edge="1" parent="WIyWlLk6GJQsqaUBKTNV-1" source="yzFltJAv8uNfXiM1kdK4-156" target="aCCsGAOV-Q1LSLL2z9md-112">
          <mxGeometry relative="1" as="geometry">
            <Array as="points">
              <mxPoint x="1070" y="1122" />
              <mxPoint x="1070" y="1879" />
            </Array>
          </mxGeometry>
        </mxCell>
        <mxCell id="Uxo_YBoUhl6oN6G-tg7K-6" value="myorders.ejs" style="html=1;whiteSpace=wrap;" vertex="1" parent="WIyWlLk6GJQsqaUBKTNV-1">
          <mxGeometry x="-280" y="1300" width="100" height="28" as="geometry" />
        </mxCell>
        <mxCell id="Uxo_YBoUhl6oN6G-tg7K-7" style="edgeStyle=orthogonalEdgeStyle;rounded=0;orthogonalLoop=1;jettySize=auto;html=1;entryX=1;entryY=0.5;entryDx=0;entryDy=0;" edge="1" parent="WIyWlLk6GJQsqaUBKTNV-1" source="Uxo_YBoUhl6oN6G-tg7K-5" target="Uxo_YBoUhl6oN6G-tg7K-6">
          <mxGeometry relative="1" as="geometry" />
        </mxCell>
        <mxCell id="dUTbbWYeFywXm29RSsG3-5" style="edgeStyle=orthogonalEdgeStyle;rounded=0;orthogonalLoop=1;jettySize=auto;html=1;entryX=0.047;entryY=1;entryDx=0;entryDy=0;entryPerimeter=0;" edge="1" parent="WIyWlLk6GJQsqaUBKTNV-1" source="yzFltJAv8uNfXiM1kdK4-156" target="09qiv7vU6BCCD43riBRa-41">
          <mxGeometry relative="1" as="geometry" />
        </mxCell>
        <mxCell id="dUTbbWYeFywXm29RSsG3-7" style="edgeStyle=orthogonalEdgeStyle;rounded=0;orthogonalLoop=1;jettySize=auto;html=1;entryX=0.022;entryY=1.02;entryDx=0;entryDy=0;entryPerimeter=0;" edge="1" parent="WIyWlLk6GJQsqaUBKTNV-1" source="dUTbbWYeFywXm29RSsG3-4" target="09qiv7vU6BCCD43riBRa-91">
          <mxGeometry relative="1" as="geometry" />
        </mxCell>
        <mxCell id="dUTbbWYeFywXm29RSsG3-8" style="edgeStyle=orthogonalEdgeStyle;rounded=0;orthogonalLoop=1;jettySize=auto;html=1;entryX=0;entryY=0.5;entryDx=0;entryDy=0;" edge="1" parent="WIyWlLk6GJQsqaUBKTNV-1" source="dUTbbWYeFywXm29RSsG3-0" target="aCCsGAOV-Q1LSLL2z9md-114">
          <mxGeometry relative="1" as="geometry">
            <Array as="points">
              <mxPoint x="990" y="1489" />
              <mxPoint x="990" y="1931" />
            </Array>
          </mxGeometry>
        </mxCell>
        <mxCell id="dUTbbWYeFywXm29RSsG3-12" style="edgeStyle=orthogonalEdgeStyle;rounded=0;orthogonalLoop=1;jettySize=auto;html=1;entryX=0;entryY=0.5;entryDx=0;entryDy=0;" edge="1" parent="WIyWlLk6GJQsqaUBKTNV-1" source="dUTbbWYeFywXm29RSsG3-0" target="aCCsGAOV-Q1LSLL2z9md-28">
          <mxGeometry relative="1" as="geometry">
            <Array as="points">
              <mxPoint x="990" y="1489" />
              <mxPoint x="990" y="1059" />
            </Array>
          </mxGeometry>
        </mxCell>
        <mxCell id="dUTbbWYeFywXm29RSsG3-13" style="edgeStyle=orthogonalEdgeStyle;rounded=0;orthogonalLoop=1;jettySize=auto;html=1;entryX=0;entryY=0.5;entryDx=0;entryDy=0;" edge="1" parent="WIyWlLk6GJQsqaUBKTNV-1" source="dUTbbWYeFywXm29RSsG3-0" target="09qiv7vU6BCCD43riBRa-80">
          <mxGeometry relative="1" as="geometry">
            <Array as="points">
              <mxPoint x="990" y="1489" />
              <mxPoint x="990" y="505" />
            </Array>
          </mxGeometry>
        </mxCell>
        <mxCell id="dUTbbWYeFywXm29RSsG3-14" style="edgeStyle=orthogonalEdgeStyle;rounded=0;orthogonalLoop=1;jettySize=auto;html=1;entryX=0;entryY=0.5;entryDx=0;entryDy=0;" edge="1" parent="WIyWlLk6GJQsqaUBKTNV-1" source="yzFltJAv8uNfXiM1kdK4-156" target="aCCsGAOV-Q1LSLL2z9md-24">
          <mxGeometry relative="1" as="geometry">
            <Array as="points">
              <mxPoint x="990" y="1122" />
              <mxPoint x="990" y="615" />
            </Array>
          </mxGeometry>
        </mxCell>
        <mxCell id="dUTbbWYeFywXm29RSsG3-15" style="edgeStyle=orthogonalEdgeStyle;rounded=0;orthogonalLoop=1;jettySize=auto;html=1;entryX=0;entryY=0.5;entryDx=0;entryDy=0;" edge="1" parent="WIyWlLk6GJQsqaUBKTNV-1" source="yzFltJAv8uNfXiM1kdK4-156" target="09qiv7vU6BCCD43riBRa-63">
          <mxGeometry relative="1" as="geometry">
            <Array as="points">
              <mxPoint x="990" y="1122" />
              <mxPoint x="990" y="239" />
            </Array>
          </mxGeometry>
        </mxCell>
        <mxCell id="dUTbbWYeFywXm29RSsG3-17" value="availableorders.ejs" style="html=1;whiteSpace=wrap;" vertex="1" parent="WIyWlLk6GJQsqaUBKTNV-1">
          <mxGeometry x="-300" y="1613" width="120" height="28" as="geometry" />
        </mxCell>
        <mxCell id="dUTbbWYeFywXm29RSsG3-18" style="edgeStyle=orthogonalEdgeStyle;rounded=0;orthogonalLoop=1;jettySize=auto;html=1;entryX=1;entryY=0.5;entryDx=0;entryDy=0;" edge="1" parent="WIyWlLk6GJQsqaUBKTNV-1" source="yzFltJAv8uNfXiM1kdK4-162" target="dUTbbWYeFywXm29RSsG3-17">
          <mxGeometry relative="1" as="geometry" />
        </mxCell>
        <mxCell id="dUTbbWYeFywXm29RSsG3-23" value="" style="endArrow=block;endFill=1;html=1;edgeStyle=orthogonalEdgeStyle;align=left;verticalAlign=top;rounded=0;entryX=1;entryY=0.5;entryDx=0;entryDy=0;exitX=1;exitY=0.5;exitDx=0;exitDy=0;" edge="1" parent="WIyWlLk6GJQsqaUBKTNV-1" source="dUTbbWYeFywXm29RSsG3-20" target="yzFltJAv8uNfXiM1kdK4-194">
          <mxGeometry x="-1" relative="1" as="geometry">
            <mxPoint x="680" y="1330" as="sourcePoint" />
            <mxPoint x="840" y="1330" as="targetPoint" />
            <Array as="points">
              <mxPoint x="560" y="1679" />
              <mxPoint x="560" y="1024" />
            </Array>
          </mxGeometry>
        </mxCell>
      </root>
    </mxGraphModel>
  </diagram>
</mxfile>
